<?xml version="1.0" encoding="UTF-8"?>
<svg id="_레이어_1" data-name="레이어 1" xmlns="http://www.w3.org/2000/svg" viewBox="0 0 281.823 294.686">
  <defs>
    <style>
      .cls-1 {
        fill: #010101;
      }

      .cls-2 {
        fill: #8c8c8c;
      }
    </style>
  </defs>
  <path class="cls-1" d="M37.886,292.161c-6.845,2.811-12.685,4.153-18.78-.729-4.4-3.524-7.603-10.2-5.567-17.069l16.643-56.144C.555,182.923-7.696,135.528,7.362,92.226,35.396,11.61,133.802-23.905,209.774,17.211c24.927,13.49,44.753,33.145,57.517,58.187,24.099,47.28,17.885,103.264-16.115,143.836-35.803,42.724-93.598,60.866-147.871,46.066l-65.419,26.861ZM95.213,236.71c4.321-1.758,8.559-1.825,12.784-.594,31.893,9.292,66.128,4.945,94.416-12.793,25.832-16.198,43.8-41.889,48.663-72.125,5.52-34.318-7.057-68.578-32.193-91.892C169.477,13.483,90.343,20.319,49.985,74.07c-29.014,38.641-27.059,91.787,5.098,128.03,3.976,4.482,6.924,9.825,5.201,16.102l-10.111,36.833,45.04-18.325Z"/>
  <g>
    <path class="cls-2" d="M95.213,236.71l-45.04,18.325,10.111-36.833c1.723-6.277-1.225-11.621-5.201-16.102-32.156-36.243-34.111-89.389-5.098-128.03,40.358-53.75,119.492-60.587,168.898-14.763,25.136,23.313,37.713,57.574,32.193,91.892-4.863,30.236-22.831,55.927-48.663,72.125-28.288,17.738-62.523,22.085-94.416,12.793-4.225-1.231-8.463-1.164-12.784.594ZM121.418,177.873c-.082.714,1.121,2.932,1.722,2.83s2.363-.554,2.841-1.005l14.335-13.517,20.085,14.341c1.667,1.19,4.851,1.768,6.512.992,1.46-.682,3.497-3.137,3.868-4.973l16.776-83.069c.388-1.923-.698-5.071-2.058-5.602-1.166-.455-4.246-.603-5.603-.009l-93.017,40.681c-2.185.956-3.902,3.455-3.853,5.32.038,1.442,2.09,3.8,3.664,4.313l25.931,8.449c17.802-12.353,32.714-25.211,51.372-36.676-12.835,16.588-26.549,29.883-39.941,44.969l-2.635,22.957Z"/>
    <path d="M121.418,177.873l2.635-22.957c13.391-15.086,27.106-28.381,39.941-44.969-18.658,11.464-33.571,24.322-51.372,36.676l-25.931-8.449c-1.574-.513-3.626-2.871-3.664-4.313-.049-1.865,1.668-4.365,3.853-5.32l93.017-40.681c1.357-.594,4.437-.446,5.603.009,1.36.53,2.446,3.679,2.058,5.602l-16.776,83.069c-.371,1.836-2.408,4.291-3.868,4.973-1.662.776-4.845.198-6.512-.992l-20.085-14.341-14.335,13.517c-.479.451-2.239.903-2.841,1.005s-1.804-2.116-1.722-2.83Z"/>
  </g>
</svg>