<?xml version="1.0" encoding="UTF-8"?>
<svg id="_레이어_1" data-name="레이어 1" xmlns="http://www.w3.org/2000/svg" viewBox="0 0 203.14 147.818">
  <defs>
    <style>
      .cls-1 {
        fill: #010101;
      }

      .cls-2 {
        fill: #898989;
      }

      .cls-3 {
        fill: #fdfdfd;
      }
    </style>
  </defs>
  <g>
    <path class="cls-1" d="M19.564,147.549C7.707,147.47-.008,138.315,0,127.222L.058,49.191c.008-10.256,7.799-18.774,18-19.224,4.765-.21,9.163-.094,13.938.118l.014,117.203c-3.916.181-7.928.292-12.445.262Z"/>
    <g>
      <path class="cls-1" d="M168.383,110.985l-.436-11.548-43.937.016c-1.759,0-4.899-.802-5.665-2.033-1.573-2.53-1.405-8.835.026-11.433.574-1.042,3.25-1.845,4.661-1.847l44.817-.075.292-11.788c.017-.694.646-2.161,1.037-2.598.522-.583,2.967-.611,3.688-.134l28.151,18.623c.934.618,2.093,2.614,2.123,3.55s-1.133,2.752-2.192,3.463l-27.667,18.572c-.778.522-2.96.715-3.518.494-.746-.295-1.332-2.021-1.379-3.263Z"/>
      <path class="cls-1" d="M181.941,65.102l-5.017-2.769c-4.384-2.42-9.342-2.376-13.257.832-3.352,2.747-4.495,7.318-4.099,12.457l-9.508.239-.125-45.864,12.274-.207c10.841-.183,19.715,8.388,19.722,19.331l.01,15.98Z"/>
      <path class="cls-1" d="M181.347,132.428c-3.264,15.53-18.276,16.062-31.388,15.09l.063-39.299c3.592-.158,6.63-.098,9.726.188-.551,6.747,1.482,11.168,6.153,13.53,5.054,2.556,9.658,1.11,15.378-3.208.799,4.163,1.019,9.176.069,13.699Z"/>
    </g>
    <g>
      <path class="cls-2" d="M72.016,29.291c12.603-.448,25.481-.477,38.105-.031l15.031.53,13.387.226-.066,45.562-16.339.206c-8.758.11-13.914,6.984-13.467,15.472.232,4.416.43,8.852,3.528,12.345,1.899,2.141,6.344,4.249,10.004,4.294l16.318.197-.072,39.517-94.988.027-.019-117.63,12.474-.26c.23-4.597.527-8.559,1.052-12.551l.282,12.622,14.77-.525Z"/>
      <path class="cls-1" d="M125.153,29.789l-15.031-.53-.149-9.161c-.051-3.151-2.665-5.218-5.713-5.212l-27.335.049c-1.849.003-4.911,2.214-4.911,3.942l.003,10.413-14.77.525-.282-12.622C58.271,7.252,66.486,0,77.114,0l28.094.002c10.246,0,19.406,7.585,19.663,18.182l.282,11.605Z"/>
    </g>
  </g>
  <path class="cls-3" d="M110.121,29.259c-12.624-.445-25.502-.416-38.105.031l-.003-10.413c0-1.729,3.062-3.939,4.911-3.942l27.335-.049c3.048-.005,5.662,2.061,5.713,5.212l.149,9.161Z"/>
</svg>