<?xml version="1.0" encoding="UTF-8"?>
<svg id="_레이어_1" data-name="레이어 1" xmlns="http://www.w3.org/2000/svg" viewBox="0 0 136.071 197.9">
  <path d="M67.983,34.413l-42.488,42.909c-6.426,6.489-15.168,7.121-21.386.886-6.812-6.83-4.472-15.623,2.047-22.158L58.073,3.995c4.866-4.879,14.201-5.597,19.361-.437l53.384,53.386c5.933,5.933,7.367,14.349,1.56,20.816-5.301,5.904-14.648,6.772-20.888.476l-43.507-43.823Z"/>
  <path d="M132.469,138.995l-53.984,54.29c-5.728,5.76-14.703,6.357-20.559.494L5.046,140.837c-5.684-5.691-6.827-13.38-2.052-19.671,4.33-5.705,14.181-8.276,20.071-2.402l44.867,44.741,44.818-44.602c5.292-5.266,14.111-4.115,18.842.639,4.699,4.722,6.695,13.602.877,19.453Z"/>
</svg>