<?xml version="1.0" encoding="UTF-8"?>
<svg id="_레이어_1" data-name="레이어 1" xmlns="http://www.w3.org/2000/svg" viewBox="0 0 205.922 182.736">
  <defs>
    <style>
      .cls-1 {
        fill: #8e8e8e;
      }

      .cls-2 {
        fill: #8a8a8a;
      }

      .cls-3 {
        fill: #8d8d8d;
      }

      .cls-4 {
        fill: #8c8c8c;
      }
    </style>
  </defs>
  <path class="cls-4" d="M182.847,44.668c-3.241,1.388-6.737.296-8.079-2.313-1.096-2.13-.554-6.911,2.052-7.95l16.098-6.42c2.016-.804,5.419,1.639,5.989,3.482.736,2.38-.329,6.463-2.892,7.561l-13.167,5.64Z"/>
  <path class="cls-4" d="M30.143,134.5c-2.265,1.866-5.596,1.958-7.691.152-1.942-1.674-2.913-6.324-.455-8.339l12.677-10.395c1.965-1.612,6.594-.175,7.734,1.611,1.479,2.317.917,6.112-1.201,7.856l-11.064,9.115Z"/>
  <path class="cls-2" d="M197.073,94.123c2.402.723,4.061,4.515,3.705,6.399-1.641,8.685-14.726,2.758-22.622-.276-1.693-.651-2.911-4.412-2.756-6.116.178-1.97,3.255-5.55,5.526-4.866l16.146,4.858Z"/>
  <path class="cls-4" d="M201.128,71.815l-15.137.855c-3.349.189-5.917-2.934-5.837-5.709.088-3.031,2.544-5.734,5.866-5.885l13.239-.602c3.23-.147,6.125,1.764,6.59,4.669.43,2.691-1.049,6.464-4.722,6.671Z"/>
  <path class="cls-3" d="M183.395,125.783c2.691,2.285,2.737,6.271.388,8.762-1.626,1.725-5.496,2.06-7.788.128l-10.356-8.731c-2.969-2.503-3.864-6.156-1.39-8.925,2.616-2.929,6.262-2.178,9.121.251l10.025,8.515Z"/>
  <path d="M110.368,178.156c-1.735,2.304-4.005,4.389-5.773,4.549-2.602.235-5.846-.87-7.538-3.051-18.569-23.945-49.564-66.031-57.337-94.565-7.521-27.608,4.592-56.022,27.715-71.003C91.509-1.512,122.521.441,144.826,18.74c21.487,17.628,29.257,46.725,19.447,72.852-11.226,29.899-34.319,60.549-53.904,86.565ZM78.881,45.234l14.491,6.217,7.017-26.061c-22.963,1.206-39.97,19.459-41.007,41.379l26.121-7.21-6.623-14.325ZM120.653,59.555l26.24,7.056c-1.719-22.595-19.125-40.296-41.458-41.325l7.049,26.219,14.564-6.277-6.395,14.327ZM111.882,69.162c0-4.952-4.015-8.967-8.967-8.967s-8.967,4.015-8.967,8.967,4.015,8.967,8.967,8.967,8.967-4.015,8.967-8.967ZM78.956,93.639l6.431-14.598-25.9-7.1c.957,22.279,18.957,40.465,40.831,41.326l-6.881-26.133-14.481,6.506ZM112.449,87.086l-7.016,26.417c22.214-1.417,40.265-18.9,41.382-41.786l-26.359,7.27,6.78,14.627-14.787-6.528Z"/>
  <path class="cls-3" d="M29.097,34.535c2.416,1.024,2.99,5.715,2.065,7.525-1.237,2.423-4.728,4.029-7.387,2.902l-13.537-5.74c-2.699-1.144-3.74-4.696-3.108-7.244.76-3.061,4.618-4.797,7.858-3.424l14.108,5.981Z"/>
  <path class="cls-1" d="M44.705,11.94c1.62,1.47,1.157,5.812-.211,7.377-1.745,1.996-5.842,2.624-7.949.713l-12.11-10.99c-1.141-2.773-1.106-5.881.927-7.888,1.644-1.623,5.786-1.509,7.677.206l11.666,10.582Z"/>
  <path class="cls-3" d="M13.015,104.954c-3.185.931-6.657-.69-7.519-3.193-1.048-3.042.648-6.806,3.873-7.825l13.216-4.178c3.152-.996,6.776.728,7.579,3.225,1.275,3.968-.505,7.104-4.392,8.24l-12.757,3.731Z"/>
  <path class="cls-3" d="M169.076,20.215c-2.165,1.969-6.594.701-7.89-1.275-1.623-2.475-1.107-6.34,1.022-8.191l10.862-9.449c1.827-1.589,5.667-1.672,7.29-.432,2.203,1.683,2.922,6.429.728,8.425l-12.011,10.923Z"/>
  <path class="cls-3" d="M19.194,72.665l-13.348-.858C2.271,71.577-.037,69.271,0,66.004c.035-2.984,2.535-5.767,6.046-5.609l14.232.643c3.212.145,5.597,3.064,5.599,5.886.003,3.488-2.846,5.987-6.684,5.74Z"/>
</svg>