<?xml version="1.0" encoding="UTF-8"?>
<svg id="_레이어_1" data-name="레이어 1" xmlns="http://www.w3.org/2000/svg" viewBox="0 0 183.09 231.965">
  <defs>
    <style>
      .cls-1 {
        fill: #010101;
      }

      .cls-2 {
        fill: #8a8a8a;
      }

      .cls-3 {
        fill: #888;
      }
    </style>
  </defs>
  <path class="cls-2" d="M156.664,208.916c1.652,7.818-1.305,15.683-8.394,20.089-6.353,3.948-15.151,4.279-21.818-1.035-5.254-4.189-8.885-11.864-6.851-19.014l14.063-.393.024-72.501,6.078-.027c-1.26.436-3.007.768-5.081,1.165l-.008,71.073,15.991.182.029-75.402-1.014-1.026,1.983-1.031.031,77.307c1.913.269,3.897.641,4.968.614Z"/>
  <path class="cls-2" d="M55.769,65.944c-1.186.776-3.596.975-6.088,1.065l.004,141.395,14.05.53c2.056,10.48-4.273,20.461-14.774,22.596-10.345,2.103-20.539-4.104-22.543-15.263-.421-2.342-.545-5.183-.659-7.37l5.932-.402,16.996-.25-.007-142.171,7.09-.131Z"/>
  <path class="cls-3" d="M111.905,65.74c6.034,3.068,11.919,9.922,17.4,15.6,5.832,6.042,15.482,4.029,17.612,8.277l11.354,22.647c.832,1.661.287,6.176-1.363,7.015l-16.622,8.449c-1.499.762-4.817,1.131-5.995.224-1.031-.793-2.472-3.082-3.156-4.534l-10.297-21.88,4.251-12.653-11.815-11.657c-2.655-2.62-3.154-6.255-2.117-10.175l-40.603-.222c.664-17.25-.932-32.69,1.087-48.004l.059,47.178,40.206-.264Z"/>
  <path d="M156.664,208.916c-1.07.027-3.055-.345-4.968-.614l-.031-77.307-1.983,1.031c-3.279,1.441-6.602,2.861-9.916,4.008l-6.078.027-.024,72.501-14.063.393-55.866-.021-14.05-.53-.004-141.395c2.492-.09,4.901-.288,6.088-1.065l.58-46.56C56.484,8.557,66.093-.008,76.537,0l30.118.024c12.3.01,20.284,10.256,20.267,21.874l-.064,44.455,6.98.525.513,9.211,16.822,5.948.299-15.418c4.713-.038,8.819-.108,13.286.089,10.674.47,18.333,9.693,18.331,20.267l-.014,101.957c-.001,9.774-7.102,18.376-16.765,19.431-2.84.31-7.356.495-9.647.553ZM71.64,18.826c-2.019,15.314-.423,30.753-1.087,48.004l40.603.222c-1.037,3.92-.538,7.556,2.117,10.175l11.815,11.657-4.251,12.653,10.297,21.88c.683,1.452,2.125,3.741,3.156,4.534,1.179.907,4.496.538,5.995-.224l16.622-8.449c1.65-.839,2.196-5.354,1.363-7.015l-11.354-22.647c-2.13-4.248-11.78-2.235-17.612-8.277-5.481-5.678-11.366-12.532-17.4-15.6l-.146-44.797c-.011-3.506-2.675-6.003-6.061-5.987l-29.133.142c-1.898.009-4.707,2.072-4.925,3.729ZM102.705,92.586l-41.864,15.578,9.079,24.397,41.864-15.578-9.079-24.397Z"/>
  <path class="cls-1" d="M31.69,208.496l-5.932.402c-2.464.167-6.213-.206-8.716-.58C5.383,206.572-.006,196.812,0,185.937l.05-97.965c.006-11.698,7.471-21.059,19.737-21.381,3.744-.098,7.858.061,12.024.329l-.121,141.576Z"/>
</svg>