<?xml version="1.0" encoding="UTF-8"?>
<svg id="_레이어_1" data-name="레이어 1" xmlns="http://www.w3.org/2000/svg" viewBox="0 0 161.079 227.192">
  <defs>
    <style>
      .cls-1 {
        fill: #040404;
      }

      .cls-2 {
        fill: #030303;
      }

      .cls-3 {
        fill: #050505;
      }

      .cls-4 {
        fill: #020202;
      }

      .cls-5 {
        fill: #848484;
      }
    </style>
  </defs>
  <path d="M121.881,226.907l-90.714.285c-16.638.052-30.925-12.497-30.948-29.846L0,32.534C-.024,14.686,12.627-.06,30.956,0l92.23.3c21.923.071,37.94,19.857,37.893,41.083l-.327,147.082c-.045,20.366-18.35,38.378-38.87,38.442ZM16.449,204.642c3.277,6.381,9.212,9.026,15.806,9.023l86.982-.033c15.347-.006,28.527-11.663,28.52-27.563l-.065-146.28c-.007-15.078-12.882-26.565-27.449-26.56l-90.01.033c-6.098.002-11.418,3.795-13.866,8.917l98.883-.009c12.433-.001,23.712,9.093,23.719,22.403l.079,136.816c.007,12.608-10.212,23.09-22.804,23.109l-99.795.145ZM111.407,85.741c0-22.803-18.486-41.289-41.289-41.289s-41.289,18.486-41.289,41.289,18.486,41.289,41.289,41.289,41.289-18.486,41.289-41.289ZM104.215,159.417c4.114.004,6.764-2.858,6.801-6.575.035-3.449-2.651-6.289-6.791-6.289H36.248c-4.398.001-7.652,2.153-7.51,6.45.097,2.915,2.598,6.34,6.54,6.344l68.936.07ZM85.293,183.28c3.968.006,6.873-2.651,6.827-6.351-.043-3.483-2.818-6.345-6.831-6.328l-31.984.134c-3.76.016-5.776,4.151-5.358,7.174.478,3.456,3.39,5.321,7.217,5.327l30.13.045Z"/>
  <path class="cls-5" d="M85.293,183.28l-30.13-.045c-3.827-.006-6.739-1.871-7.217-5.327-.418-3.022,1.598-7.158,5.358-7.174l31.984-.134c4.013-.017,6.788,2.845,6.831,6.328.046,3.7-2.859,6.357-6.827,6.351Z"/>
  <path class="cls-4" d="M80.595,81.168l-20.875.035c-.41-5.776,4.172-25.938,10.05-27.198,5.081-1.089,11.335,20.227,10.825,27.163Z"/>
  <path class="cls-4" d="M80.47,90.118c.549,6.328-4.919,28.449-10.658,27.197-6.191-1.351-9.943-20.356-10.25-27.053l20.908-.144Z"/>
  <path class="cls-3" d="M50.277,81.136l-11.678-.109c1.967-10.902,7.769-18.711,16.813-23.966-2.545,8.635-4.035,14.793-5.135,24.075Z"/>
  <path class="cls-1" d="M101.557,80.666l-11.606.673c-1.173-7.993-2.646-14.74-4.914-23.717,8.882,4.581,13.882,12.023,16.52,23.043Z"/>
  <path class="cls-2" d="M101.451,90.275c-1.461,10.578-7.235,18.786-16.618,24.01,2.518-8.219,4.03-15.159,4.913-23.977l11.705-.033Z"/>
  <path class="cls-2" d="M50.081,90.103c1.203,8.913,2.655,15.24,5.212,24.142-9.123-4.885-14.976-13.461-16.712-23.738l11.5-.404Z"/>
</svg>