<?xml version="1.0" encoding="UTF-8"?>
<svg id="_레이어_1" data-name="레이어 1" xmlns="http://www.w3.org/2000/svg" viewBox="0 0 204.785 203.319">
  <defs>
    <style>
      .cls-1 {
        fill: #a9a9a9;
      }
    </style>
  </defs>
  <path d="M146.918,135.284l30.361,16.994c7.344,4.111,11.679,11.03,9.147,19.946-1.352,4.76-4.361,9.324-7.563,13.445-10.275,13.223-26.094,19.918-42.866,16.956-9.685-1.71-18.718-4.188-27.821-8.515-40.062-19.04-73.178-50.068-94.361-89.016C7.06,92.674,2.364,80.035.451,66.307-2.633,44.17,10.422,28.118,29.395,18.979c6.846-3.298,16.731-1.227,20.575,5.594l18.81,33.376c3.874,6.874,2.871,15.076-3.137,20.4l-9.009,7.984c-4.553,4.035-5.205,10.049-1.747,15.464,12.824,20.084,30.324,36.738,50.998,48.724,4.441,2.575,9.506.864,12.427-2.43l8.493-9.579c5.051-5.696,13.143-7.128,20.114-3.226Z"/>
  <path class="cls-1" d="M184.707,102.103c-1.109-43.281-37.13-80.3-79.691-81.8-4.598-.162-8.591-1.012-10.738-4.683-1.996-3.413-2.092-7.99.361-11.573C96.863.801,101.213-.218,106.037.038c53.243,2.827,95.942,46.25,98.722,99.542.333,6.39-2.424,11.444-8.397,12.205-5.499.701-11.477-2.786-11.654-9.682Z"/>
  <path class="cls-1" d="M143.934,102.971c-.531-22.389-18.731-41.169-41.029-41.48-6.264-.087-10.332-5.022-10.103-10.412.255-5.991,4.829-9.781,11.104-9.661,31.76.606,59.416,28.21,60.037,60.13.107,5.511-3.953,9.511-8.5,10.117-5.438.724-9.975-2.579-11.51-8.694Z"/>
</svg>