<?xml version="1.0" encoding="UTF-8"?>
<svg id="_레이어_1" xmlns="http://www.w3.org/2000/svg" version="1.1" viewBox="0 0 190.2 204.36">
  <!-- Generator: Adobe Illustrator 30.1.0, SVG Export Plug-In . SVG Version: 2.1.1 Build 136)  -->
  <defs>
    <style>
      .st0 {
        fill: #a6a6a6;
      }

      .st1 {
        fill: #f8f8f8;
      }

      .st2 {
        fill: #fefefe;
      }

      .st3 {
        fill: #ababab;
      }
    </style>
  </defs>
  <path class="st2" d="M112.4,24.66l19.33-10.34C94.89-9.13,46.45-3.23,16.32,28.02c-3.88,4.02-2.61,10.26.95,13.14,3.94,3.17,9.11,2.46,12.85-1.23,21.65-21.4,53.58-27.86,82.28-15.26h0Z"/>
  <path class="st2" d="M57.33,118.92c8.15,3.2,13.53,8.89,17.89,17.06l27.03,50.61c1.13,2.12,4.57,3.99,6.45,4.04,2.5.06,5.62-2.09,6.68-4.61l9.71-23.14c-.34-.24,1.67-.58,2.38.13l38.76,39.02c5.31,5.35,11.12.27,14.77-3.27s8.15-9.83,3.56-14.5l-47.39-48.08c4.83-15.21,11.95-29.77,18.34-44.46l7.51,2.34c-.21,13.09-2,25.75-7.4,38.1-1.93,4.42,1.11,9.63,4.5,11.09,4.54,1.96,9.82.48,12.06-4.35,10.23-22.01,10.88-46.82,2.91-70.23-1.69,3.21-3.47,6.14-4.81,9.41-2.94.24-5.26-1.64-7.09-4.03l26.59-64.48c1.08-2.61.05-6.24-1.84-7.86-1.73-1.48-5.16-2.28-7.9-.96L4.36,85.71C1.64,87.03.11,90.05,0,92.42c-.1,2.34,2.04,5.8,4.79,6.84l52.54,19.66h0Z"/>
  <path class="st1" d="M170.27,78.09l-7.26,15.98-7.51-2.34c2.48-5.7,4.2-11.9,7.68-17.67,1.83,2.4,4.15,4.27,7.09,4.03Z"/>
  <g>
    <path d="M163.18,74.05c-3.48,5.77-5.2,11.97-7.68,17.67-6.39,14.69-13.51,29.25-18.34,44.46-4.78,8.82-8.35,17.82-12.07,26.7l-9.71,23.14c-1.06,2.51-4.18,4.67-6.68,4.61-1.88-.05-5.31-1.92-6.45-4.04l-27.03-50.61c-.06-1.66.6-3.69,1.89-5.24l44.93-54,24.38-28.56c.78-.91.69-4.05-.32-4.55-4.18-2.07-29.75,23.48-33.92,27.08l-50.99,44.09c-1.51,1.31-2.84,2.89-3.86,4.12L4.79,99.26C2.04,98.22-.1,94.76,0,92.42c.1-2.36,1.64-5.39,4.35-6.71L180.03.76c2.74-1.32,6.17-.52,7.9.96,1.89,1.62,2.91,5.25,1.84,7.86l-26.59,64.48h0Z"/>
    <path class="st3" d="M112.18,70.7c2.19,3.09,6.19,5.72,9.86,6.03l-44.93,54c-1.29,1.55-1.95,3.58-1.89,5.24-4.36-8.16-9.74-13.86-17.89-17.06,1.02-1.24,2.34-2.82,3.86-4.12l50.99-44.09Z"/>
    <path class="st0" d="M122.04,76.73c-3.68-.32-7.67-2.95-9.86-6.03,4.16-3.6,29.74-29.15,33.92-27.08,1.01.5,1.1,3.64.32,4.55l-24.38,28.56h0Z"/>
  </g>
</svg>