<?xml version="1.0" encoding="UTF-8"?>
<svg id="_레이어_1" data-name="레이어 1" xmlns="http://www.w3.org/2000/svg" viewBox="0 0 197.51 204.077">
  <defs>
    <style>
      .cls-1 {
        fill: #ababab;
      }

      .cls-2 {
        fill: #a8a8a8;
      }

      .cls-3 {
        fill: #a9a9a9;
      }
    </style>
  </defs>
  <path d="M131.949,63.32c-19.994,10.618-38.841,21.751-57.344,33.247-3.421,2.126-8.877,4.258-11.838,6.327-1.311.916-1.202,5.664.252,6.366l11.749,5.674,56.131,27.375c3.933,1.918,7.843,5.421,12.766,6.415,9.724-7.687,22.432-8.009,31.873.015,7.931,6.741,10.751,19.036,4.912,29.264-5.241,9.182-16.314,14.586-27.565,11.081-10.209-3.18-17.487-12.656-16.786-24.626l-13.237-5.994c-19.291-8.736-37.189-19.582-55.979-27.95-4.066-1.811-7.622-5.17-12.143-6.745-9.664,9.676-23.974,9.079-33.298.325-9.198-8.636-9.484-22.998-1.455-32.323,8.281-9.619,22.554-11.217,33.169-3.103,4.822-1.579,8.593-5.247,12.54-7.503l58.042-33.178,12.36-6.924c-1.145-11.973,5.903-22.338,16.476-25.706,11.229-3.577,23.088,1.326,28.35,11.591,5.149,10.044,2.218,22.605-6.591,29.421-9.021,6.979-21.175,6.58-30.111-.784-4.68,1.982-8.398,5.677-12.274,7.736Z"/>
  <path class="cls-2" d="M131.949,63.32c3.877-2.059,7.594-5.754,12.274-7.736,8.936,7.365,21.09,7.764,30.111.784,8.81-6.815,11.74-19.377,6.591-29.421-5.262-10.265-17.122-15.167-28.35-11.591-10.573,3.368-17.621,13.732-16.476,25.706l-12.36,6.924c-6.262-17.963,4.387-38.05,21.48-45.029,18.454-7.535,39.209-.302,48.166,17.513,8.553,17.012,3.285,37.583-11.671,48.129-15.784,11.13-36.754,8.742-49.765-5.279Z"/>
  <g>
    <path class="cls-3" d="M122.862,158.464l13.237,5.994c-.701,11.97,6.576,21.446,16.786,24.626,11.251,3.505,22.324-1.899,27.565-11.081,5.838-10.229,3.019-22.524-4.912-29.264-9.44-8.024-22.149-7.703-31.873-.015-4.923-.994-8.833-4.497-12.766-6.415,12.112-14.599,33.974-18.325,50.056-7.297,16.192,11.102,20.954,32.153,12.297,48.922-8.789,17.024-28.988,24.376-47.092,17.695-17.368-6.409-27.383-24.848-23.298-43.165Z"/>
    <path class="cls-3" d="M65.697,81.165c-3.947,2.256-7.718,5.924-12.54,7.503-10.615-8.114-24.887-6.516-33.169,3.103-8.029,9.326-7.744,23.688,1.455,32.323,9.324,8.754,23.634,9.351,33.298-.325,4.52,1.575,8.077,4.934,12.143,6.745-12.198,17.426-38.229,18.891-53.965,5.087-16.396-14.383-17.263-39.386-2.15-54.854,15.256-15.615,39.491-14.894,54.929.418Z"/>
    <path class="cls-1" d="M74.768,114.934l-11.749-5.674c-1.454-.702-1.562-5.45-.252-6.366,2.961-2.069,8.417-4.202,11.838-6.327,1.42,6.079,1.716,12.333.163,18.367Z"/>
  </g>
</svg>