<?xml version="1.0" encoding="UTF-8"?>
<svg id="_레이어_1" data-name="레이어 1" xmlns="http://www.w3.org/2000/svg" viewBox="0 0 134.861 152.768">
  <defs>
    <style>
      .cls-1 {
        fill: #010101;
      }

      .cls-2 {
        fill: #a0a0a0;
      }

      .cls-3 {
        fill: #fefefe;
      }
    </style>
  </defs>
  <path class="cls-3" d="M92.549,31.397l-.239,11.365-50.071-.281c-1.831-13.743,3.321-27.87,17.653-32.575,15.315-5.028,30.921,6.147,32.657,21.491Z"/>
  <path class="cls-2" d="M93.536,63.407c-1.446-2.114-1.199-5.5-1.296-9.317-5.465,3.144-6.807,10.277-2.702,15.368,3.574,4.432,10.881,4.978,15.302.04,3.894-4.349,3.329-11.989-2.268-14.874l-1.217,7.865.155-29.092,1.025,9.237,13.882-.048c5.385-.019,9.836,2.92,10.353,8.651l8.047,89.13c.539,5.97-3.867,12.349-10.522,12.352l-112.852.048c-6.719.003-11.98-5.894-11.398-12.379l7.995-89.185c.456-5.089,4.514-8.411,9.355-8.47l15.583-.188-.003,11.706c-4.746,1.215-6.197,6.894-5.073,11.227,1.223,4.713,5.778,7.647,10.039,7.487,5.183-.194,8.957-3.85,9.735-8.148.896-4.95-1.658-8.817-5.484-11.27l.047-11.068,50.071.281.239-11.365c1.425,12.591-.32,18.626.987,32.01Z"/>
  <path class="cls-1" d="M101.51,33.397l-.155,29.092c-.417,1.24-2.257,3.133-3.521,3.195-1.299.063-3.579-1.225-4.298-2.276-1.307-13.385.438-19.42-.987-32.01-1.736-15.344-17.342-26.518-32.657-21.491-14.331,4.705-19.483,18.831-17.653,32.575l-.047,11.068-.27,7.751c-.065,1.867-2.294,4.305-4.034,4.353-1.947.054-4.567-2.097-4.635-3.901l-.28-7.5.003-11.706.362-9.194C34.081,14.477,49.394-.258,67.819.003c18.197.258,31.691,15.374,33.69,33.393Z"/>
</svg>