<?xml version="1.0" encoding="UTF-8"?>
<svg id="_레이어_1" data-name="레이어 1" xmlns="http://www.w3.org/2000/svg" viewBox="0 0 204.26 185.989">
  <defs>
    <style>
      .cls-1 {
        fill: #010101;
      }

      .cls-2 {
        fill: #8a8a8a;
      }
    </style>
  </defs>
  <path class="cls-2" d="M204.13,128.028l-203.444-.037c-3.001-6.142,9.079-37.322,12.285-44.348,2.367-5.188,8.899-7.591,14.375-8.452,57.104-8.974,95.072-8.75,151.901.506,6.942,1.131,11.845,5.674,14.086,11.912l6.079,16.919c2.979,7.24,4.877,14.195,4.717,23.5Z"/>
  <path class="cls-1" d="M162.453,166.589l-119.254-.068c-8.802-.005-14.4,6.431-14.865,14.727-.142,2.535-2.759,4.745-5.043,4.741l-18.489-.038C3.625,185.934,0,183.478,0,181.926l.015-45.031,204.162.002.082,44.031c.005,2.635-2.585,5.001-4.933,5.034l-17.38.002c-3.385,0-5.947-2.138-6.204-5.93-.433-6.394-4.943-13.44-13.29-13.444Z"/>
  <path class="cls-1" d="M107.97,59.586l-11.759.094-.129-15.844c-.039-4.82-1.496-10.696-7.385-11.306-9.328-.967-48.625-3.583-53.672,2.959-1.395,1.808-1.339,5.303-1.492,7.85l-.702,11.74c-.197,3.289.882,6.378,2.93,9.318l-11.151,2.118c-3.455.656-6.658,2.057-10.344,3.611l-.064-52.084C14.188,6.881,22.467-.009,33.149,0l138.869.122c10.363.009,18.013,7.498,18.027,17.869l.073,51.945c-7.177-2.75-14.317-4.168-21.715-5.262,1.636-1.85,3.253-5.047,3.166-7.507l-.506-14.247c-.183-5.149-1.543-9.894-7.664-10.481-15.747-1.511-31.873-1.659-47.579.106-6.281.706-7.71,6.171-7.744,11.342l-.105,15.701Z"/>
</svg>