<?xml version="1.0" encoding="UTF-8"?>
<svg id="_레이어_1" data-name="레이어 1" xmlns="http://www.w3.org/2000/svg" viewBox="0 0 117.139 140.618">
  <defs>
    <style>
      .cls-1 {
        fill: #010101;
      }

      .cls-2 {
        fill: #030303;
      }

      .cls-3 {
        fill: #b0b0b0;
      }
    </style>
  </defs>
  <path class="cls-3" d="M89.181,38.287c-5.589.059-10.605-3.474-10.572-9.07l.171-28.99,38.109,37.766-27.708.294Z"/>
  <g>
    <path class="cls-3" d="M117.139,129.67c.004,6.375-4.283,10.941-10.348,10.941l-96.888.007C3.994,140.618,0,135.783,0,130.102V10.226C0,3.983,4.893.053,10.814.048l59.53-.048.151,29.194c-.218,9.367,6.94,16.872,16.296,17.119l30.298.128.05,83.229ZM55.554,49.39c2.304-.702,4.089-2.717,3.911-4.626-.161-1.731-2.547-3.704-4.433-3.705l-30.289-.019c-2.671-.002-4.941,2.175-4.743,4.617.15,1.847,2.532,3.707,4.689,3.708l30.864.025ZM96.858,61.309l-76.819.037.004,8.311,76.819-.037-.004-8.311ZM93.197,89.905c2.41-.002,4.106-3.4,3.645-5.004-.36-1.252-2.456-3.373-4.008-3.374l-68.943-.029c-1.893,0-4.033,2.67-4.046,4.178-.014,1.595,2.171,4.295,4.066,4.293l69.285-.064ZM66.004,110.327c2.411.001,4.562-1.638,4.77-3.7.182-1.804-1.714-4.774-3.814-4.778l-42.201-.064c-2.602-.004-4.963,2.418-4.717,4.695.208,1.92,2.496,3.826,4.69,3.827l41.272.02Z"/>
    <path class="cls-2" d="M93.197,89.905l-69.285.064c-1.896.002-4.081-2.698-4.066-4.293.014-1.508,2.153-4.179,4.046-4.178l68.943.029c1.552,0,3.648,2.122,4.008,3.374.461,1.604-1.235,5.002-3.645,5.004Z"/>
    <rect class="cls-1" x="20.041" y="61.327" width="76.819" height="8.311"/>
    <path class="cls-1" d="M66.004,110.327l-41.272-.02c-2.194-.001-4.483-1.907-4.69-3.827-.246-2.277,2.115-4.699,4.717-4.695l42.201.064c2.1.003,3.996,2.974,3.814,4.778-.208,2.063-2.359,3.702-4.77,3.7Z"/>
    <path class="cls-1" d="M55.554,49.39l-30.864-.025c-2.157-.002-4.539-1.861-4.689-3.708-.198-2.441,2.072-4.618,4.743-4.617l30.289.019c1.886.001,4.272,1.974,4.433,3.705.177,1.909-1.607,3.924-3.911,4.626Z"/>
  </g>
</svg>