<?xml version="1.0" encoding="UTF-8"?>
<svg id="_레이어_1" data-name="레이어 1" xmlns="http://www.w3.org/2000/svg" viewBox="0 0 141.001 140.675">
  <defs>
    <style>
      .cls-1 {
        fill: #0f0f0f;
      }

      .cls-2 {
        fill: #010101;
      }

      .cls-3 {
        fill: #0a0a0a;
      }

      .cls-4 {
        fill: #0d0d0d;
      }

      .cls-5 {
        fill: #b0b0b0;
      }

      .cls-6 {
        fill: #020202;
      }

      .cls-7 {
        fill: #0b0b0b;
      }

      .cls-8 {
        fill: #101010;
      }

      .cls-9 {
        fill: #080808;
      }

      .cls-10 {
        fill: #090909;
      }
    </style>
  </defs>
  <g>
    <path class="cls-6" d="M114.936,24.596c.009,3.754-2.266,6.456-5.125,6.649-3.613.243-6.605-2.146-6.612-6.041l-.032-19.191c-.006-3.384,2.655-5.875,5.659-5.983,3.296-.119,6.055,2.548,6.064,6.236l.045,18.33Z"/>
    <path class="cls-6" d="M37.847,24.738c.003,4.107-2.662,6.575-6.037,6.545-2.798-.024-5.682-2.633-5.689-5.996l-.041-19.322c-.007-3.29,2.743-5.8,5.798-5.961,2.335-.123,5.952,2.4,5.955,5.336l.014,19.398Z"/>
  </g>
  <path class="cls-5" d="M120.267,15.325l12.913.286c5.036.112,7.812,4.988,7.812,9.635l.009,105.768c0,5.407-3.619,9.661-9.368,9.66l-122.597-.01C3.743,140.665,0,136.176,0,131.115L.014,24.193c0-5.26,4.632-8.839,9.299-8.799l11.472.097.361,10.748c.201,5.991,5.224,10.416,10.776,10.506,5.491.09,10.974-4.491,11.119-10.623l.253-10.744,54.198.015.566,10.759c.315,5.991,5.147,10.582,10.762,10.654,5.511.071,11.107-4.515,11.231-10.671l.217-10.808ZM132.085,50.163l-123.283.049.032,81.573,123.283-.049-.032-81.573Z"/>
  <circle class="cls-6" cx="33.431" cy="113.182" r="8.786"/>
  <circle class="cls-2" cx="107.597" cy="68.633" r="8.789"/>
  <circle class="cls-7" cx="104.163" cy="100.021" r="3.949"/>
  <circle class="cls-8" cx="65.262" cy="82.53" r="3.869"/>
  <circle class="cls-9" cx="40.078" cy="82.63" r="3.94"/>
  <circle class="cls-3" cx="71.517" cy="94.704" r="3.863"/>
  <circle class="cls-10" cx="79.642" cy="105.531" r="3.878"/>
  <circle class="cls-1" cx="93.078" cy="107.988" r="3.884"/>
  <circle class="cls-9" cx="52.59" cy="77.602" r="3.897"/>
  <circle class="cls-9" cx="107.68" cy="86.687" r="3.866"/>
  <circle class="cls-4" cx="34.038" cy="95.111" r="3.814"/>
</svg>