<svg xmlns="http://www.w3.org/2000/svg" viewBox="0 0 24 24" width="24" height="24" fill="none"><g transform="translate(1.410, 0.000) scale(0.123248)"><g class="duotone-secondary" opacity=".4" fill="currentColor">
<path d="M19.624,179.51l50.262-7.352c.922,2.14,1.441,4.991,1.197,6.834l-50.706,7.649c-1.718,5.6-5.954,8.39-11.055,8.062-4.919-.316-9.14-4.317-9.317-9.768-.155-4.776,3.048-9.513,9.16-10.711l15.062-52.871c2.193.263,3.971.603,6.728,1.249l-13.22,48.33,33.691-37.427c2.384-.252,4.513,1.971,5.242,4.619l-37.043,41.386h0Z"/>
<path d="M145.1,161.018l-31.473-20.119c.863-1.76,2.03-3.305,3.902-5.444l31.553,19.388-12.139-30.133,6.285-2.418,12.276,30.112c4.856,1.264,9.645,3.356,10.709,8.12,1.101,4.93-1.215,9.263-5.15,11.497-5.101,2.894-9.96.567-13.836-3.979l-45.344,6.47,1.175-6.945,42.042-6.547v-.002Z"/>
<path d="M60.084,20.016l-16.913,59.716c-2.188,1.1-4.646,1.968-7.759,2.571l17.757-63.727c-4.877-4.106-5.523-10.075-2.189-14.508s9.543-5.467,14.389-1.986c4.35,3.124,5.534,9.562,1.809,14.855l4.449,9.529c1.004,2.15-.864,7.07-1.775,9.488l-9.769-15.939h.001Z"/>
</g><g class="duotone-primary" fill="currentColor">
<path d="M91.345,185.348c-.69,2.881-2.924,5.18-4.995,5.276s-4.824-2.034-5.403-4.378c-3.306-13.383-6.306-26.276-10.785-39.133-4.824-13.85-14.793-23.214-28.474-27.898-12.175-4.169-24.048-7.161-36.742-10.101C2.42,108.529.012,106.02.029,103.843c.018-2.436,2.183-4.908,4.748-5.55,12.891-3.227,25.144-6.203,37.556-10.362,13.974-4.682,23.666-15.084,28.3-28.949,4.178-12.502,7.115-24.717,10.311-37.641.609-2.461,3.125-4.495,5.391-4.409,1.999.076,4.385,2.558,4.962,4.933,3.074,12.662,6.037,24.564,10.105,36.86,4.598,13.899,14.189,24.26,28.201,28.996,12.347,4.173,24.572,7.303,37.408,10.451,2.64.647,4.829,3.243,4.841,5.668.011,2.328-2.442,4.88-5.069,5.467-13.409,2.994-26.181,5.995-38.92,10.913-12.171,4.698-20.831,13.649-25.433,25.856-4.794,12.718-7.771,25.442-11.083,39.273h-.002Z"/>
<circle cx="21.14" cy="49.434" r="10.035"/>
<circle cx="140.094" cy="33.768" r="10.005"/>
</g></g></svg>