<svg xmlns="http://www.w3.org/2000/svg" viewBox="0 0 24 24" width="24" height="24" fill="none"><g transform="translate(0.000, 0.000) scale(0.023438)"><g class="duotone-secondary" opacity=".4" fill="currentColor">

</g><g class="duotone-primary" fill="currentColor">
<path d="M539,0c-.103.108,1.454.731,2.067.778l14.078,1.081c75.534,5.8,148.495,29.353,213.549,67.066,144.79,83.939,240.309,233.311,253.526,400.427l.986,12.473c.056.703.684,2.275.794,2.174v57c-.544.66-.823,2.184-.948,4.112-16.393,253.441-219.488,459.748-468.342,477.118l-13.618.951c-.59.041-2.197.732-2.092.819h-56c.148-.07-1.575-.963-2.109-.994-86.48-5.001-170.113-32.205-243.195-78.462-111.262-70.423-191.035-180.95-222.607-308.842-6.646-26.923-11.348-53.851-13.333-81.691l-.919-12.88c-.045-.629-.731-2.267-.837-2.132v-55c5.811-78.755,26.882-155.248,66.399-224.657,46.79-82.184,114.975-149.286,197.517-195.313C332.262,25.918,406.922,5.828,484,0h55ZM973.147,512.162c0-254.667-206.448-461.115-461.115-461.115S50.916,257.495,50.916,512.162s206.448,461.115,461.115,461.115,461.115-206.448,461.115-461.115Z"/>
<path d="M973.147,512.162c0,254.667-206.448,461.115-461.115,461.115S50.916,766.829,50.916,512.162,257.365,51.047,512.031,51.047s461.115,206.448,461.115,461.115ZM541.589,870.376c40.447.185,72.912-31.425,72.861-71.412l-.081-62.946c-.03-23.418-11.424-44.46-30.595-58.427,13.726-11.679,25.799-26.799,28.378-45.654l54.289-396.916c5.739-41.961-30.066-80.941-71.299-81.078l-160.142-.532c-44.023-.146-83.48,35.929-77.473,80.73l13.401,99.954,39.903,290.752c2.935,21.385,12.303,39.729,29.881,52.805-19.622,13.724-31.006,34.212-30.988,57.434l.05,65.895c.029,37.48,30.746,68.932,68.262,69.104l63.553.291Z"/>
<path d="M540.619,639.895l-58.603-.163c-11.604-.032-19.218-10.353-20.712-21.281l-42.989-314.525-9.965-72.064c-1.81-13.092,8.832-26.896,22.643-26.914l159.95-.216c14.779-.02,26.705,11.903,24.602,27.267l-17.657,128.974-35.415,259.3c-1.498,10.971-10.342,19.655-21.854,19.623ZM515.084,587.261l45.742-331.198-97.473.037,45.785,332.122c2.428.924,4.782,1.555,5.946-.961Z"/>
<path d="M545.702,819.243l-67.726-.258c-10.024-.038-17.322-10.503-17.305-19.885l.111-63.098c.018-9.926,7.768-17.889,17.169-19.268h66.019c11.367-.001,19.353,9.236,19.324,20.247l-.166,64.036c-.025,9.483-8.07,16.917-17.426,18.227Z"/>
<path d="M515.084,587.261c-1.164,2.515-3.518,1.884-5.946.961l-45.785-332.122,97.473-.037-45.742,331.198Z"/>
</g></g></svg>