<svg xmlns="http://www.w3.org/2000/svg" viewBox="0 0 24 24" width="24" height="24" fill="none"><g transform="translate(0.000, 0.000) scale(0.120892)"><g class="duotone-secondary" opacity=".4" fill="currentColor">
<path d="M198.524,99.262c0,54.821-44.441,99.262-99.262,99.262S0,154.083,0,99.262,44.441,0,99.262,0s99.262,44.441,99.262,99.262ZM114.782,51.766c0-8.596-6.968-15.564-15.564-15.564s-15.564,6.968-15.564,15.564,6.968,15.564,15.564,15.564,15.564-6.968,15.564-15.564ZM80.122,162.469l38.138-.002c1.887,0,5.155-1.146,6.08-2.427,2.372-3.289,2.515-13.378-1.053-15.444-2.841-1.645-6.498-1.487-10.435-1.529l-.114-59.324c-.005-2.473-3.47-5.823-5.756-5.825l-27.646-.019c-4.869-.003-7.157,3.973-7.003,8.67.099,3.003.132,7.838,3.456,9.212,2.841,1.175,6.399,1.149,9.941,1.352l-.046,46.033c-3.643.074-6.689.054-9.079.725-4.18,1.173-4.099,6.11-4.259,9.464-.252,5.296,2.479,9.113,7.776,9.113Z"/>
</g><g class="duotone-primary" fill="currentColor">
<path d="M80.122,162.469c-5.296,0-8.027-3.817-7.776-9.113.159-3.355.079-8.292,4.259-9.464,2.39-.67,5.436-.651,9.079-.725l.046-46.033c-3.543-.203-7.1-.177-9.941-1.352-3.324-1.374-3.357-6.208-3.456-9.212-.154-4.697,2.134-8.673,7.003-8.67l27.646.019c2.286.002,5.752,3.351,5.756,5.825l.114,59.324c3.937.041,7.593-.116,10.435,1.529,3.568,2.066,3.425,12.154,1.053,15.444-.924,1.282-4.193,2.427-6.08,2.427l-38.138.002Z"/>
<circle cx="99.218" cy="51.766" r="15.564"/>
</g></g></svg>