<svg xmlns="http://www.w3.org/2000/svg" viewBox="0 0 24 24" width="24" height="24" fill="none"><g transform="translate(0.651, 0.000) scale(0.114415)"><g class="duotone-secondary" opacity=".4" fill="currentColor">
<path d="M24.778,105.303l-18.773.041c-3.14.007-5.75-2.333-5.984-5.107-.275-3.251,2.235-6.155,5.82-6.154l19.188.006c3.072,0,5.469,2.663,5.638,5.21.233,3.509-2.27,5.997-5.888,6.005Z"/>
<path d="M104.787,24.372c.034,4.183-2.236,6.658-5.493,6.732-3.502.079-5.834-2.539-5.856-6.262l-.112-19.04c-.017-2.957,2.588-5.641,5.087-5.791,3.233-.194,6.193,2.155,6.222,5.702l.152,18.659Z"/>
<path d="M192.924,105.313l-19.541.016c-2.92.002-5.559-2.254-5.872-5.028-.3-2.661,2.102-6.159,5.275-6.174l19.283-.092c3.202-.015,6.023,2.26,6.299,5.408.225,2.572-2.527,5.867-5.444,5.87Z"/>
<path d="M20.888,151.377c-2.279,1.343-6.359-.031-7.36-1.654-1.315-2.131-1.126-6.568,1.283-7.978l17.687-10.352c2.356-1.379,6.707.429,7.696,2.56,1.175,2.531.075,6.001-2.51,7.525l-16.797,9.898Z"/>
<path d="M166.17,67.743c-2.369,1.412-6.362.211-7.482-1.488-1.466-2.223-1.115-6.671,1.454-8.177l17.117-10.031c2.257-1.323,6.402-.185,7.727,1.876,1.493,2.321.763,6.153-1.936,7.761l-16.881,10.059Z"/>
<path d="M182.917,141.472c2.999,1.792,3.608,5.605,2.052,8-1.636,2.517-5.324,3.067-8.036,1.499l-16.1-9.302c-2.771-1.601-3.858-5.035-2.473-7.957,1.275-2.69,5.414-3.681,8.456-1.864l16.102,9.623Z"/>
<path d="M38.431,58.383c2.289,1.368,2.494,5.856,1.263,7.756-1.511,2.331-5.028,2.987-7.565,1.506l-16.52-9.644c-2.66-1.553-3.634-4.739-2.466-7.579,1.019-2.477,5.297-3.984,8.093-2.314l17.195,10.274Z"/>
<path d="M66.736,32.837c1.482,2.601.251,6.391-1.672,7.626-2.529,1.625-6.394,1.05-7.989-1.751l-9.877-17.353c-1.316-2.313.382-6.605,2.304-7.398,2.82-1.163,6.282-.34,7.748,2.232l9.485,16.645Z"/>
<path d="M141.614,38.18c-1.637,2.979-5.287,3.81-7.575,2.78-2.766-1.246-4.424-5.095-2.837-7.848l9.892-17.166c1.335-2.316,5.26-3.14,7.582-1.98,2.007,1.002,3.556,4.886,2.187,7.377l-9.249,16.837Z"/>
</g><g class="duotone-primary" fill="currentColor">
<path d="M122.564,166.142l-45.738.063c-10.861.015-2.737-13.65-15.262-25.245-21.642-20.035-24.626-53.205-5.848-76.292,20.518-25.226,57.577-27.894,80.999-6.277,23.736,21.907,24.389,58.374,1.093,81.432-13.871,13.729-6.698,26.306-15.243,26.318ZM98.233,68.584c3.401-.206,4.87-2.652,4.536-5.381-1.099-8.956-39.997-.108-42.587,33.648-.232,3.029,1.53,5.289,4.26,5.299,2.051.008,4.108-1.923,4.318-4.359,1.358-15.752,13.222-28.221,29.473-29.207Z"/>
<path d="M109.861,205.551c-5.275,5.735-16.48,5.51-21.397-.048-2.056-2.324-3.38-3.907-6.464-3.858-3.674.058-6.272-2.383-6.71-5.618-.389-2.871,2.068-6.993,5.67-6.995l35.994-.023c3.476-.002,6.248,3.637,6.16,6.239-.143,4.216-2.694,6.547-7.603,6.316-1.865-.088-3.745,1.915-5.651,3.987Z"/>
<path d="M120.922,183.872l-43.07.067c-3.712.006-6.606-2.409-6.887-5.779-.213-2.561,2.085-6.894,5.502-6.904l44.47-.126c3.815-.011,6.493,2.995,6.582,6.347.088,3.309-2.795,6.389-6.597,6.395Z"/>
</g></g></svg>