<svg xmlns="http://www.w3.org/2000/svg" viewBox="0 0 24 24" width="24" height="24" fill="none"><g transform="translate(2.007, 0.000) scale(0.111609)"><g class="duotone-secondary" opacity=".4" fill="currentColor">
<path d="M172.34,14.208c-1.734-.339-5.165-1.522-6.983-1.525l-26.843-.052c-3.728-.007-6.365,3.096-6.699,6.465-.277,2.79,1.995,6.947,5.65,6.984l27.632.281.067,25.994c.011,4.4,3.53,7.577,8.317,6.947-.554,1.202-1.053,3.203-1.055,5.015l-.087,72.933c-3.532-.261-7.098,3.236-7.115,6.975l-.117,26.265-25.786.013c-3.87.002-6.753,2.001-7.398,5.776-.494,2.891,1.5,7.663,5.546,7.701l24.027.225c3.44.032,7.24-.802,10.854-1.683l.003,21.98c0,4.505-3.888,10.468-9.166,10.47l-145.649.064c-4.89.002-9.822-3.827-10.273-8.664-.756-8.099-.658-16.144.304-23.737,1.894.97,6.244,1.515,8.681,1.503l25.105-.118c3.756-.018,6.152-4.118,5.949-7.043-.297-4.282-3.549-6.508-7.834-6.498l-25.421.063-.082-26.076c-.013-4.041-3.21-6.887-7.47-7.17l.53-74.033c.01-1.37-.943-3.26-1.717-3.953,3.812,1.244,8.491-1.64,8.546-6.331l.312-26.713,25.285-.038c4.404-.007,7.648-2.259,7.822-6.468.184-4.461-3.056-7.217-7.829-7.201l-24.176.077c-2.752.009-6.169,1.247-8.851,2.72l.332-4.065C7.211,5.667,10.821.022,17.53.021L160.275,0c4.221,0,7.89,1.279,10.008,4.102s2.656,6.705,2.057,10.106ZM130.953,137.471c7.527.011,13.148-4.932,13.136-12.269l-.084-53.629c-.01-6.366-5.774-10.959-11.466-11.081l-17.35-.371c-2.604-4.519-5.225-8.929-8.859-11.639l-28.979-.239c-9.129-.075-9.056,7.377-13.963,12.113l-16.017.171c-7,.075-12.331,5.641-12.321,12.817l.073,52.051c.008,5.967,4.925,11.946,11.322,11.955l84.51.12Z"/>
<path d="M116.852,98.638c0,15.047-12.198,27.244-27.244,27.244s-27.244-12.198-27.244-27.244,12.198-27.244,27.244-27.244,27.244,12.198,27.244,27.244ZM107.616,98.643c0-9.928-8.049-17.977-17.977-17.977s-17.977,8.049-17.977,17.977,8.049,17.977,17.977,17.977,17.977-8.049,17.977-17.977Z"/>
</g><g class="duotone-primary" fill="currentColor">
<path d="M172.34,14.208c3.732,3.905,6.727,7.913,6.73,13.128l.012,25.039c.002,3.481-2.48,6.557-5.6,6.928-4.787.63-8.306-2.547-8.317-6.947l-.067-25.994-27.632-.281c-3.655-.037-5.927-4.194-5.65-6.984.334-3.369,2.971-6.472,6.699-6.465l26.843.052c1.818.004,5.249,1.187,6.983,1.525Z"/>
<path d="M5.309,59.31C2.12,58.269.001,55.646.014,52.432l.108-26.201c.018-4.465,2.988-8.786,6.297-10.873,2.682-1.474,6.099-2.711,8.851-2.72l24.176-.077c4.773-.015,8.013,2.74,7.829,7.201-.174,4.208-3.418,6.461-7.822,6.468l-25.285.038-.312,26.713c-.055,4.691-4.734,7.575-8.546,6.331Z"/>
<path d="M6.495,137.297c4.26.282,7.457,3.129,7.47,7.17l.082,26.076,25.421-.063c4.285-.011,7.537,2.216,7.834,6.498.203,2.925-2.193,7.025-5.949,7.043l-25.105.118c-2.436.011-6.787-.533-8.681-1.503C2.5,179.344-.018,173.961,0,168.406l.08-24.151c.012-3.729,3.236-6.436,6.415-6.958Z"/>
<path d="M172.34,137.25c3.97.293,6.709,3.763,6.709,7.153v25.821c-.001,5.004-3.578,8.959-6.698,12.299-3.614.881-7.414,1.715-10.854,1.683l-24.027-.225c-4.045-.038-6.04-4.81-5.546-7.701.645-3.774,3.528-5.774,7.398-5.776l25.786-.013.117-26.265c.017-3.739,3.583-7.236,7.115-6.975Z"/>
<path d="M130.953,137.471l-84.51-.12c-6.397-.009-11.313-5.987-11.322-11.955l-.073-52.051c-.01-7.176,5.321-12.742,12.321-12.817l16.017-.171c4.907-4.737,4.834-12.189,13.963-12.113l28.979.239c3.634,2.71,6.255,7.12,8.859,11.639l17.35.371c5.693.122,11.456,4.715,11.466,11.081l.084,53.629c.012,7.337-5.609,12.28-13.136,12.269ZM116.852,98.638c0-15.047-12.198-27.244-27.244-27.244s-27.244,12.198-27.244,27.244,12.198,27.244,27.244,27.244,27.244-12.198,27.244-27.244Z"/>
<circle cx="89.639" cy="98.643" r="17.977"/>
</g></g></svg>