<svg xmlns="http://www.w3.org/2000/svg" viewBox="0 0 24 24" width="24" height="24" fill="none"><g transform="translate(0.957, 0.000) scale(0.086499)"><g class="duotone-secondary" opacity=".4" fill="currentColor">
<path d="M138.659,189.426c-10.113-33.183-16.54-40.1-49.598-50.733,33.314-10.597,39.215-17.36,49.561-50.209,10.44,33.17,16.172,39.291,49.41,50.225-33.23,10.598-39.631,18.026-49.373,50.717Z"/>
</g><g class="duotone-primary" fill="currentColor">
<path d="M118.846,246.1c30.775,5.964,61.57-2.245,86.008-21.305-4.796-.548-8.894-.853-13.331-1.008-8.4-.294-14.516-6.49-14.152-14.545.351-7.771,6.799-13.723,15.19-13.332l50.746,2.362c7.003.326,12.632,8.631,11.877,15.286l-5.782,50.928c-.895,7.88-8.054,12.797-15.14,12.045-7.848-.833-13.087-7.363-12.323-15.582l1.136-12.218c-16.347,11.52-33.559,20.497-53.236,25.105-51.091,11.964-103.598-6.265-137.458-46.112C3.506,193.743-6.578,147.921,4.232,104.643,22.427,31.797,95.853-13.052,169.258,3.395c19.628,4.398,37.286,13.662,53.933,25.448l-1.061-13.961c-.54-7.109,5.312-12.626,11.405-13.678,6.514-1.125,14.391,2.769,15.321,10.282l6.366,51.42c1.136,9.173-5.714,16.163-14.637,16.567l-49.044,2.221c-7.523.341-13.418-5.878-14.057-12.515-.714-7.409,4.464-14.311,12.226-15.061,4.771-.461,9.104-.907,14.276-1.671-28.723-23.133-66.802-28.843-101.266-16.79C55.405,52.205,25.755,98.071,29.867,147.685c4.017,48.471,39.555,88.836,88.979,98.414Z"/>
</g></g></svg>