<svg xmlns="http://www.w3.org/2000/svg" viewBox="0 0 24 24" width="24" height="24" fill="none"><g class="duotone-secondary" opacity=".4" fill="currentColor"><path d="M0 0h1.72v.078H0z"/><path d="M0 0c.861.608 1.381 1.556 1.564 2.58.104 1.066-.114 2.049-.782 2.894l-.176.244c-.528.553-1.13.87-1.857 1.085l-.145.046c-.957.186-1.98.023-2.807-.49-.872-.644-1.48-1.437-1.696-2.517-.138-1.054.032-2.104.66-2.982C-3.88-.753-1.812-1.069 0 0m-2.514.828c-.264.344-.2.761-.198 1.18q-.001.24-.01.48c-.005.68-.005.68.329 1.25q.137.129.282.25l.18.196c.122.134.122.134.289.117v.156c.226.221.441.391.762.391.248-.106.248-.106.41-.312.01-.265.01-.265-.077-.548-.208-.2-.208-.2-.365-.318-.328-.255-.604-.498-.704-.914a9 9 0 0 1-.022-1.187c.008-.327-.01-.534-.239-.787-.276-.1-.396-.132-.637.046"/><path d="M0 0h.078v1.564H0z"/><path d="M0 0h1.72v.078H0z"/></g><g class="duotone-primary" fill="currentColor"><path d="M0 0c.288.232.44.43.547.782.001.272.001.272-.024.562l-.024.292c-.03.24-.03.24-.108.397l.15-.098C2.588.614 4.605-.193 7.077-.185h.177c2.643.008 4.967.986 6.978 2.687l.289.23.18.161v.157h.157c.217.233.41.486.607.737q.136.172.275.342c1.794 2.277 2.342 5.171 2.065 8.008-.303 2.312-1.407 4.427-3.025 6.084l-.17.184c-1.257 1.333-2.925 2.169-4.659 2.69l-.157.047c-.876.251-1.727.317-2.634.314h-.178c-.949-.003-1.845-.07-2.76-.342l-.172-.05c-2.11-.642-4.113-1.913-5.482-3.655l-.11-.139c-1.398-1.826-1.398-1.826-1.273-2.881.129-.29.309-.495.547-.704.388-.13.78-.145 1.158.015.378.312.59.71.817 1.134.286.522.606.98.997 1.432l.18.239c1.45 1.584 3.7 2.522 5.824 2.647 2.378.092 4.51-.869 6.28-2.402 1.003-.945 1.7-2.185 2.139-3.48l.055-.164c.255-.804.33-1.612.326-2.451l-.001-.27c-.032-2.243-.972-4.25-2.506-5.864-1.785-1.715-4.014-2.391-6.45-2.356-1.28.043-2.445.451-3.575 1.041l-.145.076a4.6 4.6 0 0 0-.876.628l.24.009.475.02c.466.026.793.135 1.108.484.223.323.251.585.21.973-.14.324-.338.503-.625.704-.251.083-.414.083-.677.074l-.274-.01-.296-.01q-.15-.007-.303-.012-.477-.02-.953-.042l-.158-.008a77 77 0 0 1-1.05-.056l-.277-.014c-.481-.031-.814-.057-1.174-.392-.538-.747-.189-2.035-.08-2.9q.04-.321.077-.643l.051-.417.023-.191c.14-1.091.14-1.091.55-1.44C-.752-.17-.448-.18 0 0"/><path d="M0 0c.23.083.23.083.362.23.128.305.11.54.1.866-.037.805-.037.805.308 1.502.176.176.365.327.562.479.227.212.227.212.308.5-.003.26-.003.26-.169.455-.225.117-.225.117-.42.117a1.8 1.8 0 0 1-.587-.39v-.157l-.136-.059a2.1 2.1 0 0 1-.504-.41l-.165-.166c-.325-.358-.232-.843-.234-1.3l-.009-.496-.002-.315-.003-.29c.037-.248.037-.248.18-.438C-.239.005-.239.005 0 0"/></g></svg>