<svg xmlns="http://www.w3.org/2000/svg" viewBox="0 0 24 24" width="24" height="24" fill="none"><g transform="translate(0.296, 0.000) scale(0.118383)"><g class="duotone-secondary" opacity=".4" fill="currentColor">
<path d="M108.896,155.888c1.23-.947,3.205-3.428,2.775-4.378-1.707-1.9-6.149-5.294-5.565-7.426.804-2.934,3.747-5.165,6.271-7.848l-6.488-7.395-1.07-10.667c-8.79-5.124-13.781-13.595-13.687-22.916.096-9.544,4.526-18.331,13.177-23.235,13.386-7.589,30.114-3.094,37.298,10.416,6.828,12.842,2.254,29.194-11.343,36.316l-.045,46.009-6.52,7.72c-2.132,2.524-5.862,3.853-8.542,1.208l-7.058-6.967c-3.135-3.095-3.446-7.572.795-10.837ZM124.794,85.952c0-3.829-3.104-6.933-6.933-6.933s-6.933,3.104-6.933,6.933,3.104,6.933,6.933,6.933,6.933-3.104,6.933-6.933Z"/>
</g><g class="duotone-primary" fill="currentColor">
<path d="M28.659,135.786l15.027-.193.169,51.937,123.075.054-.066-131.639-122.979.003-.243,47.484-14.922-.149-.123-46.922c-4.496-.655-7.359-3.075-7.416-7.654l-.151-12.137c-.033-2.653,1.769-5.973,4.643-7.068L99.526,1.336c3.518-1.342,6.9-1.919,10.481-.559l74.621,28.336c2.649,1.006,5.141,4.171,5.094,6.634l-.275,14.456c-.076,3.99-3.231,5.992-7.427,5.933l.009,131.01,10.183.806c3.381.268,5.66,4.4,5.521,7.24-.167,3.406-2.38,7.507-6.823,7.508l-169.753.032c-5.005,0-7.94-3.379-7.965-7.435-.027-4.404,3.025-7.467,7.779-7.662l7.651-.313.037-51.536Z"/>
<path d="M50.811,138.562l-.105-11.506H6.935c-1.715,0-4.889-.87-5.63-2.111-2.117-3.548-2.148-13.095,3.654-13.111l45.722-.128.181-11.044c.015-.898.681-2.669,1.189-3.25.51-.584,2.901-.412,3.721.129l27.388,18.073c.96.634,2.16,2.682,2.243,3.683s-1.184,2.93-2.253,3.652l-27.065,18.281c-.853.576-2.795.831-3.395.638-.798-.256-1.868-2.307-1.877-3.308Z"/>
</g></g></svg>