<svg xmlns="http://www.w3.org/2000/svg" viewBox="0 0 24 24" width="24" height="24" fill="none"><g transform="translate(0.000, 0.399) scale(0.117541)"><g class="duotone-secondary" opacity=".4" fill="currentColor">
<path d="M190.444,196.596l-65.377.798c-12.587.154-23.202-6.923-24.091-19.7-.804-11.556,8.299-21.933,21.048-22.354,1.389-12.455,10.779-21.002,23.083-21.264,9.227-.196,17.216,5.174,21.961,12.782,5.47-1.794,10.826-1.358,15.367,1.339s6.77,7.713,7.145,13.498c8.712,2.151,14.291,8.556,14.596,17.187.252,7.12-4.437,17.602-13.731,17.715Z"/>
<path d="M50.658,87.063l-36.612.069c-7.722.015-13-4.39-13.936-11.479-1.061-8.034,5.729-11.985,12.083-14.678,2.518-3.17,4.291-11.374,10.925-10.804l38.416,23.466c.849,3.046-.036,7.249-1.86,9.669-1.629,2.162-5.279,3.75-9.017,3.757Z"/>
</g><g class="duotone-primary" fill="currentColor">
<path d="M33.417,162.476c-.956.325-4.121-.54-4.702-1.323-3.209-4.319.984-11.779,2.401-16.856L3.364,127.932c-.92-.543-2.517-2.333-2.596-3.317-.25-3.089,7.494-9.845,11.008-10.984l36.829,6.215,37.953-41.293L16.059,35.173c-1.201-.739-2.343-1.922-2.683-2.763s.316-3.38.976-3.996l5.66-5.278c3.484-3.249,7.849-4.883,12.784-3.597l89.128,23.234,30-29.636c7.434-7.344,16.908-11.465,27.038-13.137,2.904.258,5.883.636,7.787,2.023,1.659,1.209,2.443,4.533,2.901,7.274-.786,9.577-4.241,18.55-10.86,25.935-10.117,11.288-20.933,21.224-32.118,32.137l15.218,61.93c-11.395-5.693-23.699-5.568-34.621,1.05l-16.548-27.284-40.838,37.377,7.089,36.945c-1.349,3.156-8.239,10.956-11.328,11.012-1.321.024-3.321-2.085-4.13-3.482l-15.464-26.732-12.632,4.291Z"/>
</g></g></svg>