<svg xmlns="http://www.w3.org/2000/svg" viewBox="0 0 24 24">
<defs>
    <style>
      .cls-1 {
        fill: #fff;
      }
    </style>
  </defs>
  <g transform="translate(0.000, 0.000) scale(0.089552)">
<path class="cls-1" d="M0,0h268v268H0V0ZM160.046,192.466c-7.598,7.859-5.7,20.316,1.302,26.604,7.82,7.022,19.246,6.608,26.722-1.015l67.256-68.58c9.039-9.217,9.246-21.891.194-31.104l-67.806-69.009c-7.623-7.758-20.162-7.193-27.33.38-6.807,7.192-6.949,18.984.378,26.539l37.646,38.821-176.904.328c-10.677.02-16.981,10.815-16.336,19.901.631,8.894,7.805,17.383,18.042,17.391l175.123.145-38.286,39.6Z"/>
  <path d="M160.046,192.466l38.286-39.6-175.123-.145c-10.237-.008-17.411-8.498-18.042-17.391-.644-9.086,5.659-19.881,16.336-19.901l176.904-.328-37.646-38.821c-7.327-7.555-7.185-19.347-.378-26.539,7.168-7.573,19.707-8.138,27.33-.38l67.806,69.009c9.052,9.213,8.846,21.887-.194,31.104l-67.256,68.58c-7.476,7.623-18.901,8.037-26.722,1.015-7.002-6.288-8.9-18.745-1.302-26.604Z"/>
  </g>
</svg>