<svg xmlns="http://www.w3.org/2000/svg" viewBox="0 0 24 24">
<defs>
    <style>
      .cls-1 {
        fill: #a0a0a0;
      }
    </style>
  </defs>
  <g transform="translate(0.878, 0.000) scale(0.157236)">
<path d="M110.53,108.013c-1.714,11.948-10.673,23.697-23.572,24.204-15.959.628-31.162.776-47.222-.078-12.747-.677-23.077-13.32-23.1-25.7l-.093-50.419c-.004-1.962,2.235-4.942,3.476-4.941l88.257.039c1.584,3.121,2.035,5.82,2.288,9.144,5.78-2.146,12.258-3.443,19.002-.513,4.769,2.072,9.881,6.833,11.296,13.557,3.853,18.312-11.156,34.403-30.333,34.708ZM110.377,97.844c12.261,1.135,22.704-8.887,20.915-21.207-.76-5.235-5.258-8.797-10.022-8.904-3.501-.079-10.65,2.231-10.689,6.721l-.204,23.391Z"/>
  <path class="cls-1" d="M105.47,152.54l-82.616.097c-8.021.009-24.791-7.58-22.671-12.522.285-.665,1.957-1.548,2.827-1.548l120.79-.008c1.163,0,2.826.674,3.102,1.413,2.072,5.551-14.899,12.561-21.432,12.568Z"/>
  <path class="cls-1" d="M74.021,42.073c-6.513.839,7.814-9.621-3.106-17.914-3.953-3.002-5.984-7.545-5.896-12.324.164-8.976,10.993-14.088,11.401-10.864.097.771-.05,2.411-.432,3.181-6.902,13.909,10.92,12.596,8.491,27.276-.714,4.313-3.747,9.78-10.458,10.645Z"/>
  <path class="cls-1" d="M61.015,31.635c-.934,9.659-11.728,12.819-11.689,9.864.007-.563.187-2.107.559-2.7,7.679-12.224-9.197-12.307-8.098-25.953.343-4.262,4.286-9.948,10.645-9.847,3.885.062-7.264,9.218,3.061,16.743,3.756,2.737,5.949,7.49,5.523,11.893Z"/>
  </g>
</svg>