<svg xmlns="http://www.w3.org/2000/svg" viewBox="0 0 24 24">
<defs>
    <style>
      .cls-1 {
        fill: #aaa;
      }
      .cls-2 {
        fill: #acacac;
      }
    </style>
  </defs>
  <g transform="translate(0.000, 0.000) scale(0.093568)">
<path d="M256.497,128.249c0,70.83-57.419,128.249-128.249,128.249S0,199.078,0,128.249,57.419,0,128.249,0s128.249,57.419,128.249,128.249ZM227.929,128.229c0-55.019-44.601-99.62-99.62-99.62S28.689,73.21,28.689,128.229s44.601,99.62,99.62,99.62,99.62-44.601,99.62-99.62Z"/>
  <path d="M158.232,172.002l-37.161-37.008c-1.344-1.338-2.72-4.613-2.719-6.552l.015-49.118c.002-5.829,3.574-10.29,8.974-10.718,5.58-.442,10.785,3.43,10.8,9.684l.109,45.268,33.985,34.071c4.165,4.175,4.294,10.066.4,14.19-3.366,3.565-9.918,4.647-14.403.181Z"/>
  <path class="cls-1" d="M56.287,135.194c-4.369,1.124-8.919,1.036-13.021.425-3.195-.476-5.313-4.228-5.405-6.882-.109-3.143,1.573-7.28,5.408-7.791,7.211-.961,16.118-1.74,17.167,6.2.318,2.41-.891,7.209-4.149,8.047Z"/>
  <path class="cls-1" d="M214.988,134.916c-4.578,1.53-9.324,1.396-13.782.639-2.922-.496-5.142-4.298-5.253-6.776-.137-3.041,1.725-7.214,5.226-7.795,6.595-1.094,16.415-1.832,17.355,6.052.271,2.269-.606,6.898-3.545,7.881Z"/>
  <path class="cls-2" d="M135.247,213.837c-.435,3.171-4.666,5.177-6.878,5.129-2.669-.058-6.657-1.834-7.144-4.777-.706-4.265-.732-8.405-.082-12.59.49-3.159,4.309-5.074,7.051-5.093,2.495-.018,6.379,1.977,6.913,5.034.682,3.906.764,7.759.141,12.297Z"/>
  <path class="cls-1" d="M135.131,54.823c-.356,2.984-4.687,4.793-6.918,4.776-2.362-.018-6.396-1.704-6.93-4.515-.789-4.153-.78-8.312-.197-12.501.443-3.184,4.321-5.242,7.09-5.204,2.543.036,6.581,2.035,6.979,5.129.515,4.01.526,7.71-.024,12.315Z"/>
  </g>
</svg>