<svg xmlns="http://www.w3.org/2000/svg" viewBox="0 0 24 24">
<defs>
    <style>
      .cls-1 {
        fill: #b1b1b1;
      }
      .cls-2 {
        fill: #d4d4d4;
      }
    </style>
  </defs>
  <g transform="translate(0.536, 0.000) scale(0.136519)">
<path d="M141.56,61.265c-.754-1.471-2.127-3.076-3.936-3.881l-49.249,49.7c-5.147,5.195-13.108,5.006-18.023.163l-7.601-7.491c-4.948-4.876-5.639-13.271-.364-18.599l48.895-49.385c-.173-1.99-2.042-4.008-4.18-5.387-4.446-7.566-18.166-13.571-15.341-22.17.658-2.003,3.874-4.06,6.6-4.067L160.404,0c3.573-.009,7.454,2.905,7.459,6.818l.085,63.045c.003,2.218-1.626,5.318-3.127,6.165-1.751.988-6.21,1.107-7.739-.316l-15.522-14.445Z"/>
  <g>
    <path class="cls-2" d="M141.56,61.265l-.468,24.045c-.048,2.46.643,4.817,2.429,5.858-2.541-.47-5.72-.251-8.441,1.146-2.013,1.034-3.303,4.902-3.305,7.929l-.037,47.022c-.004,5.576-4.639,10.402-10.376,10.401l-91.963-.029c-5.941-.002-11.369-4.395-11.371-10.436l-.027-99.979c-.002-5.748,4.693-10.414,10.315-10.434l44.06-.152c4.964-.017,8.306-4.322,8.444-9.285l23.912-.031c.651,0,2.786-1.042,2.371-.934,2.138,1.378,4.007,3.397,4.18,5.387l-48.895,49.385c-5.275,5.328-4.584,13.723.364,18.599l7.601,7.491c4.915,4.844,12.876,5.032,18.023-.163l49.249-49.7c1.808.805,3.182,2.41,3.936,3.881Z"/>
    <path class="cls-1" d="M80.82,27.352c-.138,4.963-3.481,9.268-8.444,9.285l-44.06.152c-5.622.019-10.317,4.686-10.315,10.434l.027,99.979c.002,6.041,5.429,10.434,11.371,10.436l91.963.029c5.737.002,10.372-4.824,10.376-10.401l.037-47.022c.002-3.027,1.292-6.895,3.305-7.929,2.721-1.397,5.9-1.616,8.441-1.146,3.302.61,6.156,3.742,6.157,6.974l.014,49.167c.004,14.859-11.975,28.378-27.321,28.394l-93.907.097C12.8,175.816-.002,162.919,0,147.196L.013,47.249c.002-15.872,12.8-28.573,28.401-28.601l42.999-.078c5.453-.01,8.873,3.892,9.407,8.783Z"/>
  </g>
  </g>
</svg>