<svg xmlns="http://www.w3.org/2000/svg" viewBox="0 0 24 24">
<defs>
    <style>
      .cls-1 {
        fill: #aaa;
      }
    </style>
  </defs>
  <g transform="translate(0.000, 0.001) scale(0.093536)">
<path d="M165.908,250.927c-5.292-.283-9.588-3.69-9.595-9.48l-.047-38.922c-.011-8.775-3.794-16.792-8.553-23.617,7.68-1.186,14.942-2.086,22.105-4.407,26.711-8.658,37.395-33.825,34.314-60.43-1.177-10.165-5.476-18.481-11.607-26.375,3.653-11.661,2.889-23.431-1.807-34.651-12.677.641-22.898,7.048-32.107,15.104-19.759-5.462-39.925-5.382-59.955.123-9.024-7.521-19.577-14.914-32.216-14.973-5.713,10.251-5.137,23.681-2.05,34.796-11.322,12.7-13.889,28.719-11.428,45,2.736,18.104,12.798,33.044,30.229,40.019,8.26,3.305,16.775,4.314,26.068,5.953-5.589,4.819-5.612,12.254-8.89,17.295-4.201,4.97-14.3,4.53-20.215,3.497-6.481-1.131-10.953-5.362-14.497-10.307-5.552-7.747-13.181-17.107-24.128-14.413-.84.207-2.499,1.924-2.269,2.729.172.603,1.082,2.094,1.743,2.56,20.11,14.158,11.288,27.665,31.716,36.137,8.922,3.7,17.954,3.17,27.792,1.143l-.064,25.577c-.012,4.944-4.957,7.118-9.074,7.85C30.491,232.842-7.809,172.715,1.348,109.805,10.506,46.895,64.357.181,127.93,0s117.688,46.228,127.202,109.085c9.514,62.857-28.445,123.201-89.223,141.842Z"/>
  <path class="cls-1" d="M165.908,250.927c-24.276,7.446-50.216,7.519-74.534.211,4.117-.732,9.061-2.906,9.074-7.85l.064-25.577c-9.838,2.027-18.87,2.557-27.792-1.143-20.427-8.471-11.606-21.979-31.716-36.137-.662-.466-1.571-1.957-1.743-2.56-.23-.806,1.429-2.523,2.269-2.729,10.947-2.694,18.576,6.666,24.128,14.413,3.544,4.945,8.016,9.176,14.497,10.307,5.916,1.032,16.014,1.472,20.215-3.497,3.278-5.041,3.301-12.476,8.89-17.295-9.294-1.64-17.809-2.648-26.068-5.953-17.43-6.975-27.493-21.915-30.229-40.019-2.46-16.282.106-32.3,11.428-45-3.088-11.115-3.664-24.545,2.05-34.796,12.639.059,23.192,7.452,32.216,14.973,20.03-5.506,40.196-5.585,59.955-.123,9.209-8.056,19.43-14.464,32.107-15.104,4.696,11.22,5.46,22.99,1.807,34.651,6.131,7.894,10.43,16.21,11.607,26.375,3.08,26.605-7.603,51.772-34.314,60.43-7.162,2.322-14.424,3.221-22.105,4.407,4.759,6.824,8.543,14.842,8.553,23.617l.047,38.922c.007,5.789,4.303,9.197,9.595,9.48Z"/>
  </g>
</svg>