<svg xmlns="http://www.w3.org/2000/svg" viewBox="0 0 24 24">
<defs>
    <style>
      .cls-1 {
        fill: #010101;
      }
      .cls-2 {
        fill: #8a8a8a;
      }
      .cls-3 {
        fill: #898989;
      }
      .cls-4 {
        fill: #8c8c8c;
      }
    </style>
  </defs>
  <g transform="translate(0.000, 0.193) scale(0.116308)">
<path class="cls-1" d="M118.987,158.524l-31.581-.233-.121,44.723-78.99-.005C3.291,203.009-.001,199.705,0,195.571c.002-4.821,3.23-7.566,8.253-7.754l7.645-.285.035-146.366c.001-4.947,3.523-8.844,8.353-8.867l22.79-.11.257-22.172C47.397,4.56,51.68.006,57.29.006L149.259,0c5.128,0,9.561,4.126,9.626,9.248l.29,22.97,22.083-.072c5.443-.018,8.959,3.363,8.963,9.07l.107,146.377,8.035.257c3.915.125,7.065,2.485,7.857,5.833.637,2.692-1.05,9.119-5.454,9.131l-81.71.212-.068-44.504ZM126.714,143.212c4.288.006,7.484,4.258,7.483,7.826l-.012,36.801,40.944-.044V56.31s-41.785-.261-41.785-.261c4.763-14.915-1.148-28.449-12.349-36.324s-26.497-7.178-37.323,1.002c-10.822,8.178-14.967,21.949-10.826,35.41l-41.769.136.011,131.54,40.692.049.265-37.879c.024-3.399,3.795-6.837,7.182-6.833l47.487.061Z"/>
  <path class="cls-1" d="M113.586,65.313l-10.516-6.065-10.257,6.029c-.508.298-2.158.451-2.667.397-.678-.072-1.544-1.996-1.379-2.693l2.871-12.124-9.353-8.322c-.513-.457-1.063-2.331-.595-2.638s2.047-1.083,2.671-1.141l11.49-1.058,4.557-10.582c.351-.815,1.574-2.184,2.363-2.301s2.354,1.458,2.667,2.202l4.358,10.392,11.469,1.139c.907.09,2.335.695,2.962,1.2s-.431,2.972-1.129,3.581l-8.7,7.596,2.682,11.182c.129.537-.21,2.415-.344,2.915-.179.67-2.437.702-3.15.291Z"/>
  <path class="cls-3" d="M127.074,99.059l-16.15.07c-1.323.006-3.52-2.519-3.522-3.812l-.022-15.494c-.002-1.524,2.082-4.074,3.586-4.071l16.368.034c1.518.003,3.569,2.728,3.566,4.032l-.034,15.363c-.003,1.287-2.322,3.873-3.793,3.879Z"/>
  <path class="cls-4" d="M159.865,99.101l-16.902-.033c-1.303-.003-3.461-2.59-3.461-3.896l-.009-15.342c0-1.478,2.016-4.083,3.464-4.082l16.563.014c1.439.001,3.506,2.635,3.504,4.076l-.022,15.289c-.002,1.149-1.906,3.219-3.137,3.973Z"/>
  <path class="cls-2" d="M130.863,126.506c.002,2.432-2.323,4.485-4.425,4.486l-15.272.006c-1.522,0-3.755-2.509-3.757-3.82l-.021-15.322c-.002-1.693,1.857-4.16,3.607-4.161l16.241-.013c1.369-.001,3.613,2.423,3.614,3.745l.013,15.079Z"/>
  <path class="cls-2" d="M159.105,130.992l-15.095.132c-1.69.015-4.476-2.181-4.475-3.933l.009-16.049c0-1.317,2.325-3.438,3.498-3.439l16.444-.021c1.594-.002,3.57,2.637,3.567,4.144l-.034,15.342c-.003,1.382-2.409,3.81-3.913,3.823Z"/>
  <path class="cls-2" d="M98.924,94.301c.087,2.366-2.379,4.822-4.47,4.823h-15.171c-1.222.001-3.987-1.935-3.968-3.157l.303-19.545c8.189-.951,14.265-.879,22.648-.126l.658,18.005Z"/>
  <path class="cls-2" d="M65.119,75.989c2.623,1.5,1.594,19.349.807,22.612-8.212.757-14.153.787-22.161-.08-.784-7.961-.813-14.111-.097-22.217,7.327-.605,14.246-.679,21.451-.315Z"/>
  <path class="cls-3" d="M65.198,107.867c2.431,2.229,1.573,19.142.622,22.759-7.781.374-13.722.408-21.313.068-2.116-3.137-1.73-18.629-.495-22.791l21.185-.036Z"/>
  <path class="cls-2" d="M98.73,127.042c-.003,1.934-2.528,4.036-4.298,4.032l-15.443-.035c-1.303-.003-3.756-2.355-3.746-3.831l.112-16.239c.009-1.242,2.425-3.246,3.751-3.251l15.369-.051c2.006-.007,4.276,2.183,4.274,4.117l-.02,15.258Z"/>
  </g>
</svg>