<svg xmlns="http://www.w3.org/2000/svg" viewBox="0 0 24 24">
<defs>
    <style>
      .cls-1 {
        fill: #8a8a8a;
      }
      .cls-2 {
        fill: #8d8d8d;
      }
      .cls-3 {
        fill: #8b8b8b;
      }
      .cls-4 {
        fill: #8c8c8c;
      }
    </style>
  </defs>
  <g transform="translate(0.000, 0.166) scale(0.116599)">
<path class="cls-4" d="M12.108,100.633c-3.165.941-6.455-1.024-7.298-3.476-1.035-3.014.388-6.595,3.688-7.588l14.233-4.285c2.922-.88,6.321,1.114,7.111,3.644,1.009,3.229-.672,6.632-4.155,7.667l-13.58,4.038Z"/>
  <path class="cls-3" d="M181.845,37.248c-3.209,1.53-6.862.683-8.18-2.161-1.129-2.436-.269-6.586,2.494-7.91l13.796-6.61c2.564-1.229,6.249.335,7.306,2.631,1.327,2.88.379,6.518-2.711,7.991l-12.706,6.059Z"/>
  <path class="cls-1" d="M193.382,100.497l-13.063-3.757c-3.395-.976-5.252-3.677-4.623-7.032.651-3.468,4.213-5.412,7.954-4.234l13.82,4.354c2.713.855,3.976,4.73,3.202,7.244-.785,2.548-4.084,4.346-7.29,3.424Z"/>
  <path class="cls-2" d="M186.73,67.187c-4.434.432-6.731-2.44-6.851-5.699s2.221-5.678,5.912-5.963l13.677-1.056c3.336-.257,6.309,2.231,6.364,5.128.063,3.336-1.929,5.915-5.525,6.265l-13.577,1.324Z"/>
  <path class="cls-2" d="M29.089,26.978c3.171,1.437,4.107,5.605,2.848,8.245-1.286,2.697-5.031,3.711-7.968,2.272l-12.95-6.341c-2.109-1.033-3.381-4.291-3.162-6.53.201-2.047,3.561-5.655,6.099-4.505l15.134,6.859Z"/>
  <path class="cls-3" d="M19.328,67.176l-16.426-1.974c-2.58-.31-3.432-4.978-2.587-7.44.659-1.921,3.741-3.585,6.366-3.355l13.919,1.218c2.919.255,5.427,3.201,5.308,5.683-.166,3.477-2.808,6.321-6.58,5.868Z"/>
  <path class="cls-1" d="M29.398,131.158c-1.875,1.569-6.027,1.036-7.49-.188-1.889-1.581-2.915-6.247-.855-7.959l12.215-10.153c1.957-1.626,6.275-1.051,7.809.715,1.871,2.153,1.61,6.463-.734,8.424l-10.947,9.161Z"/>
  <path class="cls-3" d="M183.192,121.69c2.479,2.026,2.833,5.598,1.321,8.245-1.1,1.926-5.437,3.204-7.558,1.495l-11.772-9.485c-2.201-1.773-2.644-5.724-1.271-7.914,1.237-1.972,5.858-3.311,7.895-1.646l11.384,9.304Z"/>
  <path d="M109.68,174.936c-1.556,2.061-3.598,3.828-5.12,4.213-1.994.505-5.718-.605-7.084-2.375-18.858-24.451-49.222-65.16-57.681-94.154C29.684,47.968,50.688,12.558,84.327,2.685c34.307-10.069,70.117,9.008,80.935,43.451,4.347,13.84,4.143,27.429-.923,41.125-10.99,29.715-35.178,61.861-54.66,87.675ZM78.638,41.743l14.597,6.395,6.833-26.224c-22.499,1.477-39.75,18.408-41.124,41.46l26.22-7.391-6.526-14.239ZM120.421,55.972l26.091,7.313c-1.341-22.657-19.142-40.796-41.19-41.25l7.083,26.199,14.272-6.605-6.256,14.344ZM78.496,89.489l6.756-14.235-26.256-6.928c.74,22.383,18.886,40.016,41.176,41.783l-6.909-26.645-14.767,6.024ZM112.1,83.685l-7.046,26.491c22.619-1.982,40.035-18.681,41.29-41.773l-26.115,6.995,6.675,14.44-14.804-6.153Z"/>
  <path class="cls-1" d="M163.963,183.762c1.209,7.727-14.778,13.314-21.427,14.796-26.57,5.923-53.864,5.947-80.361-.166-6.811-1.571-21.788-7.056-20.656-14.634,1.479-9.905,29.283-15.779,38.143-16.432l10.596,13.674c5.441,7.022,16.083,9.887,22.638,2.622,4.598-5.096,8.478-10.54,12.864-16.308,9.091.562,36.613,6.286,38.203,16.448Z"/>
  </g>
</svg>