<svg xmlns="http://www.w3.org/2000/svg" viewBox="0 0 24 24">
<defs>
    <style>
      .cls-1 {
        fill: #898989;
      }
    </style>
  </defs>
  <g transform="translate(1.652, 0.000) scale(0.109588)">
<g>
    <path class="cls-1" d="M183.559,211.081l-64.987-19.627c-.179-5.287,2.201-13.828,5.726-16.091,6.349-4.076,13.234,2.67,21.805-1.676,2.725-1.382,5.305-5.718,6.167-9.748,3.272-15.305-4.113-27.405,4.156-36.665,6.963-7.796,19.936-8.281,27.235-.695,7.93,8.241,6.317,20.74-1.749,28.22-5.313,4.927-9.358,10.713-11.627,17.432-5.783,17.12,16.898,12.989,17.498,24.12.263,4.882-1.723,9.969-4.225,14.731Z"/>
    <path class="cls-1" d="M180.308,215.316c-2.483,2.8-5.688,3.753-9.083,3.682-16.099-.337-31.493-4.518-45.155-12.661-3.556-2.12-6.133-4.916-7.552-8.895,3.37.445,6.469.883,9.618,1.85l52.173,16.024Z"/>
  </g>
  <path d="M142,166.18c-1.285,1.259-6.022.55-7.828.117-8.59-2.059-17.061,1.859-20.787,10.519H21.344C8.311,176.814-.019,166.443,0,154.131l.141-90.029c.017-10.712,8.512-20.315,19.226-20.429l28.512-.304.449-21.425c.227-10.837,10.642-21.239,21.79-21.596,15.067-.483,29.171-.405,44.127-.119,13.352.254,23.277,11.97,23.28,24.763l.004,18.458,27.778.095c9.901.034,19.763,7.972,19.803,18.687l.206,54.818c-9.004-4.973-19.122-5.867-28.151-.701-7.669,4.388-13.609,13.302-13.379,23.451.207,9.154,3.211,20.823-1.784,26.379ZM63.847,43.541l57.974-.087-.025-18.97c-.006-4.409-3.634-8.702-8.169-8.715l-39.437-.11c-5.342-.015-10.517,2.607-10.659,8.771-.145,6.267-.042,12.851.317,19.111Z"/>
  </g>
</svg>