<svg xmlns="http://www.w3.org/2000/svg" viewBox="0 0 24 24">
<defs>
    <style>
      .cls-1 {
        fill: #a0a0a0;
      }
      .cls-2 {
        fill: #9c9c9c;
      }
      .cls-3 {
        fill: #9f9f9f;
      }
    </style>
  </defs>
  <g transform="translate(0.024, 0.000) scale(0.157863)">
<path d="M53.729,113.697l-15.192,15.848-17.605,19.442c-3.985,4.401-11.035,3.796-14.836-.306-10.793-11.647,14.159-23.619,19.307-32.957,5.921-4.083,10.144-9.792,14.879-14.097l19.66-17.876,10.408,10.769-16.623,19.178Z"/>
  <path class="cls-1" d="M103.39,17.519l-16.01,15.318c-13.458-4.074-29.198-1.424-39.029,8.407l-14.661-14.735c19.035-16.835,47.014-20.46,69.701-8.99Z"/>
  <path class="cls-1" d="M125.511,117.613l-14.955-15.181c7.126-10.515,11.95-23.911,7.336-35.685,5.828-5.743,11.418-11.975,16.738-18.189,8.292,21.898,7.468,45.76-7.261,64.978-.809,1.056-1.582,3.036-1.857,4.077Z"/>
  <path d="M33.689,26.508l14.661,14.735c21.448,20.558,42.045,40.725,62.205,61.189l14.955,15.181,17.907,17.026c4.403,4.186,4.201,10.961.249,14.641-4.245,3.952-10.863,3.527-14.927-.926l-17.153-18.793-15.066-15.732c-10.049-10.494-18.612-21.485-28.494-31.691-3.485-3.599-6.977-5.364-11.856-4.027-12.62,3.457-16.84-6.899-24.348-12.406l-15.417-18.131c-5.557-6.535-9.793-13.835-13.289-21.302C.101,19.828-2.889,5.532,5.291,3.465c7.076-1.788,21.001,18.888,28.399,23.043Z"/>
  <g>
    <path d="M112.671,23.408c.4-.476-15.79,11.985-10.733,15.564,4.918,3.48,14.81-10.631,15.73-11.453l16.641-14.867c1.129-1.009,4.106-1.4,5.16-.644,1.211.868,1.276,4.564.218,5.649-5.533,5.673-10.072,10.841-15.095,16.789-.734.869-14.532,10.91-11.433,16.095.71,1.188,4.386,1.358,5.359.33l10.798-11.412,16.143-15.236c1.207-1.139,3.724-1.402,4.878-.684,1.299.809,1.865,4.491.908,5.608l-16.617,19.411c-5.319,6.214-10.91,12.446-16.738,18.189-4.25,4.189-12.81,3.759-17.76,2.405-4.407-1.205-6.913.963-10.817,3.667l-9.322-9.445c2.653-3.177,4.644-5.287,3.875-8.54-1.583-6.7-2.494-16.474,3.511-21.999l16.01-15.318c6.245-2.248,19.4-21.127,24.361-16.905,1.671,1.422,1.619,4.496.054,6.074-5.51,5.554-10.152,10.795-15.133,16.721Z"/>
    <path class="cls-3" d="M129.317,39.458l-10.798,11.412c-.973,1.028-4.649.859-5.359-.33-3.099-5.185,10.699-15.227,11.433-16.095l4.724,5.013Z"/>
    <path class="cls-2" d="M117.668,27.519c-.92.822-10.812,14.933-15.73,11.453-5.057-3.578,11.133-16.04,10.733-15.564,1.874,1.044,3.652,2.478,4.997,4.11Z"/>
  </g>
  <path class="cls-1" d="M96.521,113.828l15.066,15.732c-.798.261-2.478.865-3.386,1.417-20.276,12.331-44.98,12.506-65.246.093-1.197-.733-3.277-1.305-4.418-1.525l15.192-15.848c12.607,8.306,30.562,8.97,42.793.131Z"/>
  <path class="cls-3" d="M31.823,65.705c-2.291,12.654-.353,26.45,8.459,35.921-4.735,4.305-8.958,10.014-14.879,14.097-16.69-18.471-18.053-45.248-8.997-68.15l15.417,18.131Z"/>
  </g>
</svg>