<svg xmlns="http://www.w3.org/2000/svg" viewBox="0 0 24 24">
<defs>
    <style>
      .cls-1 {
        fill: #010101;
      }
      .cls-2 {
        fill: #030303;
      }
      .cls-3 {
        fill: #050505;
      }
      .cls-4 {
        fill: #020202;
      }
      .cls-5 {
        fill: #868686;
      }
      .cls-6 {
        fill: #858585;
      }
    </style>
  </defs>
  <g transform="translate(0.578, 0.000) scale(0.111487)">
<path class="cls-4" d="M135.822,147.634l-5.025-4.337c-2.846-2.456-3.497-6.472-1.233-9.668,1.738-2.453,6.341-3.72,9.352-1.453,2.844,2.142,5.67,4.669,7.765,7.421,2.194,2.882.516,7.221-2.32,8.91-2.408,1.434-6.02,1.301-8.54-.874Z"/>
  <path class="cls-4" d="M156.794,162.306c.613,5.974-1.511,16.847-8.946,15.588-3.606-.611-6.487-3.946-5.741-7.863l1.508-7.919c.471-2.475,3.84-4.884,6.165-5.052,2.863-.206,6.665,1.853,7.013,5.246Z"/>
  <path class="cls-2" d="M117.252,50.712c-2.159,2.803-6.167,3.326-8.496,2.145-3.341-1.694-5.372-5.978-3.004-9.272,1.801-2.505,3.831-4.969,5.951-7.271,2.5-2.715,6.892-2.431,9.054-.417,2.654,2.471,3.027,6.333.803,9.221l-4.309,5.595Z"/>
  <path class="cls-2" d="M107.955,77.362c-.537,3.179-4.67,4.968-7.132,4.624-2.497-.349-5.816-3.04-5.784-5.919.063-5.68-.203-14.944,7.697-14.795,2.359.044,6.344,2.627,6.282,5.513-.079,3.668-.382,6.543-1.063,10.576Z"/>
  <path class="cls-4" d="M122.803,194.574c-3.884.241-6.081-3.671-6.141-6.23-.083-3.536,2.089-6.248,5.558-7.306l5.552-1.694c2.708-.826,6.629.594,7.833,2.717,1.602,2.826,1.311,7.664-1.8,9.405-2.965,1.659-7.134,2.867-11.001,3.107Z"/>
  <path class="cls-2" d="M137.444,35.13c-3.117.754-6.428-1.91-7.436-4.436-.904-2.265.105-6.673,2.881-8.068,3.146-1.581,6.728-2.502,10.378-2.801,3.262-.268,5.94,3.433,6.395,5.97.403,2.246-1.335,6.705-3.769,7.293l-8.448,2.042Z"/>
  <path class="cls-2" d="M68.864,196.959c-3.542.006-6.305-.155-9.266-.813-2.375-.528-3.963-4.579-3.874-6.643.086-1.989,2.267-5.705,4.575-5.993,3.545-.443,6.524-.474,9.906-.158s5.9,4.279,5.697,7.122c-.225,3.157-3.031,6.479-7.039,6.486Z"/>
  <path class="cls-3" d="M102.275,196.224c-3.667.844-7.533.786-10.98.368-3.497-.425-5.46-4.16-5.199-7.12.241-2.742,2.866-6.171,6.136-6.225,5.061-.084,12.449-1.263,13.826,5.485.454,2.222-.71,6.786-3.783,7.493Z"/>
  <circle class="cls-6" cx="179.714" cy="25.138" r="12.077"/>
  <g>
    <path class="cls-1" d="M40.155,210.427c-13.487,9.875-32.204,3.839-38.168-10.732-6.129-14.974,2.44-31.654,18.652-35.032,4.962-27.153,19.766-46.983,45.319-57.148,13.607-5.413,27.525-6.891,42.319-7.551,30.833-1.376,57.478-19.126,61.939-50.459-8.301-4.238-14.136-11.576-15.462-19.833-1.47-9.158,1.791-18.389,9.105-24.217,8.372-6.671,20.179-7.296,29.399-1.487,8.254,5.201,13.283,15.672,11.151,26.214-1.97,9.739-8.818,18.146-19.98,20.247-6.707,39.699-36.434,60.568-75.31,63.131-11.006.726-21.222,1.516-31.785,4.413-22.807,6.255-38.959,24.339-42.816,47.902,8.503,3.628,14.191,11.185,15.561,19.119,1.727,9.998-1.514,19.273-9.925,25.432ZM191.791,25.138c0-6.67-5.407-12.077-12.077-12.077s-12.077,5.407-12.077,12.077,5.407,12.077,12.077,12.077,12.077-5.407,12.077-12.077ZM37.314,189.742c0-6.644-5.386-12.03-12.03-12.03s-12.03,5.386-12.03,12.03,5.386,12.03,12.03,12.03,12.03-5.386,12.03-12.03Z"/>
    <circle class="cls-5" cx="25.283" cy="189.742" r="12.03"/>
  </g>
  </g>
</svg>