<svg xmlns="http://www.w3.org/2000/svg" viewBox="0 0 24 24">
<defs>
    <style>
      .cls-1 {
        fill: #b0b0b0;
      }
    </style>
  </defs>
  <g transform="translate(0.000, 0.005) scale(0.170274)">
<path d="M66.069,98.725c1.522-1.534,3.22-5.269,4.211-7.022l13.548,3.188c-.977,4.734-3.757,10.28-7.629,14.115l-24.156,23.921c-11.742,11.628-31.004,9.929-42.31-1.215-11.316-11.154-13.786-30.201-1.931-42.161l27.81-28.058c7.825-7.895,19.296-10.127,30.24-5.861-3.729,3.915-7.622,8.732-12.024,11.487-3.065,1.918-6.749,2.621-9.266,5.208l-26.129,26.854c-6.413,6.591-4.016,17.185,1.993,22.644,6.904,6.272,16.871,5.903,23.62-.899l22.024-22.2Z"/>
  <g>
    <path d="M121.126,43.969c6.559-6.617,7.04-15.861,1.317-23.177-5.103-6.523-16.192-9.341-23.051-2.54l-22.088,21.898c-2.453,2.432-4.464,6.001-6.167,9.089l-13.794-3.666c1.989-6.908,5.957-12.017,10.833-16.615,8.086-7.625,15.055-16.071,23.81-22.964,12.912-10.165,31.221-6.67,41.261,5.004,10.658,12.392,10.329,30.783-1.455,42.578l-25.021,25.045c-8.107,8.114-20.117,10.842-31.062,6.587,3.868-4.047,7.579-8.72,11.844-11.605,3.23-2.185,7.307-3.135,10.18-6.034l23.391-23.598Z"/>
    <path class="cls-1" d="M52.931,98.158c-2.9,2.919-6.735,2.886-9.633.849-2.213-1.555-4.058-6.583-1.289-9.384l45.582-46.121c3.199-3.236,7.207-3.672,10.322-.977,2.933,2.537,3.152,7.175.048,10.299l-45.031,45.333Z"/>
  </g>
  </g>
</svg>