<svg xmlns="http://www.w3.org/2000/svg" viewBox="0 0 24 24" width="24" height="24" fill="none"><g transform="translate(3.334, 0.000) scale(0.156956)"><g class="duotone-secondary" opacity=".4" fill="currentColor">
<path d="M69.724,118.508c7.701,2.119,39.169,4.889,40.656,16.619,1.004,7.925-15.105,12.989-21.664,14.34-21.87,4.505-44.16,4.618-66.025.155-6.997-1.428-23.593-6.213-22.653-14.619,1.265-11.306,33.993-14.559,40.612-16.24l10.221,13.789c.714.999,3.193,2.27,4.411,2.286s3.555-1.475,4.318-2.517l10.123-13.813Z"/>
<circle cx="55.165" cy="47.63" r="15.87"/>
</g><g class="duotone-primary" fill="currentColor">
<path d="M69.724,118.508l-10.123,13.813c-.763,1.041-3.101,2.532-4.318,2.517s-3.697-1.287-4.411-2.286l-10.221-13.789c-10.033-15.871-20.467-31.258-28.745-48.601C2.234,49.9,5.739,27.292,22.962,12.201,38.6-1.501,61.3-4.086,79.681,6.607c16.801,9.774,27.585,30.178,22.874,50.501-2.663,11.486-7.988,22.042-14.243,31.952l-18.587,29.448ZM71.035,47.63c0-8.765-7.105-15.87-15.87-15.87s-15.87,7.105-15.87,15.87,7.105,15.87,15.87,15.87,15.87-7.105,15.87-15.87Z"/>
</g></g></svg>