<svg xmlns="http://www.w3.org/2000/svg" viewBox="0 0 24 24" width="24" height="24" fill="none"><g transform="translate(1.803, 0.000) scale(0.132156)"><g class="duotone-secondary" opacity=".4" fill="currentColor">
<path d="M103.468,150.937c-.293,3.959-3.623,6.736-7.099,6.766-3.542.03-7.426-3.251-7.106-7.458l4.927-64.95c.32-4.217,3.656-6.92,7.269-6.827,3.789.097,7.135,3.28,6.811,7.646l-4.801,64.824Z"/>
<path d="M65.102,150.095c.322,4.258-3.231,7.387-6.838,7.516-3.312.119-6.912-2.555-7.227-6.739l-4.88-64.735c-.321-4.263,2.862-7.304,6.511-7.642,3.626-.336,7.201,2.367,7.524,6.635l4.911,64.965Z"/>
</g><g class="duotone-primary" fill="currentColor">
<path d="M114.461,181.558l-71.491.039c-12.211.279-21.637-8.304-22.11-20.64L12.402,54.916l129.599.008-8.416,105.093c.141,11.183-7.59,20.326-19.123,21.541ZM65.102,150.095l-4.911-64.965c-.323-4.268-3.897-6.971-7.524-6.635-3.649.338-6.832,3.379-6.511,7.642l4.88,64.735c.315,4.184,3.915,6.858,7.227,6.739,3.607-.129,7.16-3.258,6.838-7.516ZM103.468,150.937l4.801-64.824c.323-4.366-3.023-7.55-6.811-7.646-3.613-.092-6.949,2.611-7.269,6.827l-4.927,64.95c-.319,4.207,3.564,7.489,7.106,7.458,3.476-.03,6.806-2.807,7.099-6.766Z"/>
<path d="M147.449,30.343c4.57.013,6.829,3.882,6.878,7.33.042,2.988-2.332,7.317-6.553,7.317l-140.764.006c-4.428,0-6.931-3.95-7.009-7.382-.076-3.386,2.842-7.15,6.872-7.2l33.583-.414C38.006,14.857,46.303,1.192,60.92.372c10.775-.604,21.199-.327,32.11-.172,10.933.155,19.972,9.085,20.731,19.92l.709,10.126,32.979.097ZM99.587,30.303l-.184-8.984c-.07-3.388-4.088-6.626-7.346-6.644l-28.206-.153c-3.51-.019-7.835,1.913-8.373,5.932-.427,3.195-.33,6.724-.1,9.799l44.209.051Z"/>
</g></g></svg>