<svg xmlns="http://www.w3.org/2000/svg" viewBox="0 0 24 24" width="24" height="24" fill="none"><g transform="translate(0.012, 0.000) scale(0.035125)"><g class="duotone-secondary" opacity=".4" fill="currentColor">

</g><g class="duotone-primary" fill="currentColor">
<path d="M474.834,378.198c-41.676,70.777-124.062,113.908-206.519,106.431-98.127-8.898-176.625-86.002-182.769-185.142-3.979-64.191,22.845-125.414,72.615-166.049,41.805-34.132,94.925-50.618,149.048-47.635,65.058,3.585,124.764,36.483,160.996,90.769,21.982,32.935,33.639,71.951,32.89,111.851-.604,32.162-10.064,62.27-26.261,89.776Z"/>
<path d="M647.711,678.059l-168.735-177.05c-51.828,42.405-115.002,67.222-181.6,69.711-94.331,3.525-184.144-38.44-241.189-113.453-21.743-28.591-37.811-60.868-46.828-95.996-14.793-57.635-12.24-118.134,9.004-173.742,13.564-35.505,33.658-67.558,59.942-94.968,31.949-33.317,70.452-59.221,114.11-74.733,63.393-22.524,132.746-23.815,196.831-3.236,41.374,13.286,78.747,35.957,110.174,65.603,65.194,61.501,96.358,151.406,84.654,240.194-8.958,57.853-34.344,107.584-73.893,151.121l166.896,175.863c7.835,8.256,6.953,20.942-.467,28.974-6.393,6.921-20.493,10.534-28.9,1.712ZM345.59,521.284c30.494-7.124,57.722-19.463,83.335-36.073,38.88-25.215,70.007-59.888,90.822-101.259,23.455-46.616,29.564-98.668,18.651-149.554-15.423-71.919-63.001-132.503-128.898-165.277-43.417-21.594-91.97-29.596-140.283-25.003-80.17,7.623-151.999,52.17-193.089,121.335-46.619,78.472-44.52,177.994,5.937,254.325,30.649,46.365,76.637,80.33,129.872,97.045,43.16,13.551,89.055,14.881,133.652,4.462Z"/>
</g></g></svg>