<svg xmlns="http://www.w3.org/2000/svg" viewBox="0 0 24 24" width="24" height="24" fill="none"><g transform="translate(0.000, 0.498) scale(0.146724)"><g class="duotone-secondary" opacity=".4" fill="currentColor">
<path d="M101.091,118.548l-19.351-10.255-20.161,10.738c-.841.448-3.094.24-3.762-.192s-1.5-2.545-1.338-3.478l3.847-22.271-15.515-15.583c-.821-.825-1.47-3.41-1.019-4.288s2.374-1.852,3.466-1.988l21.447-2.663,9.288-19.721c.501-1.063,2.33-2.523,3.32-2.711,1.187-.226,3.435,1.416,4.007,2.596l9.589,19.781,21.839,2.763c.845.107,2.374,1.21,2.765,1.907s.175,3.383-.435,3.987l-15.626,15.492c-1.333,4.725,9.411,32.124-2.362,25.885Z"/>
</g><g class="duotone-primary" fill="currentColor">
<path d="M81.933,133.488l-43.448,22.92c-2.155,1.137-6.78-.477-8.271-1.893-1.706-1.621-2.945-5.131-2.431-7.862l8.57-45.542L2.6,68.504c-2.073-2.003-2.968-5.365-2.462-8.028.464-2.439,3.364-5.639,6.435-6.09l46.988-6.906L74.994,3.761C76.136,1.432,80.006-.057,82.182.002c2.908.079,5.579,2.211,7.025,5.178l20.585,42.256,47.006,6.938c2.431.359,5.257,2.806,6.156,4.57,1.103,2.166.739,6.952-1.146,8.764l-34.579,33.226,8.359,45.589c.6,3.272-.62,6.8-2.996,8.57-2.139,1.594-6.345,2.058-9.009.636l-41.649-22.241ZM101.091,118.548c11.773,6.239,1.029-21.159,2.362-25.885l15.626-15.492c.61-.605.826-3.291.435-3.987s-1.92-1.8-2.765-1.907l-21.839-2.763-9.589-19.781c-.572-1.18-2.82-2.822-4.007-2.596-.99.188-2.82,1.648-3.32,2.711l-9.288,19.721-21.447,2.663c-1.092.136-3.014,1.11-3.466,1.988s.197,3.463,1.019,4.288l15.515,15.583-3.847,22.271c-.161.933.672,3.046,1.338,3.478s2.92.64,3.762.192l20.161-10.738,19.351,10.255Z"/>
</g></g></svg>