<svg xmlns="http://www.w3.org/2000/svg" viewBox="0 0 24 24" width="24" height="24" fill="none"><g transform="translate(0.000, 0.731) scale(0.093574)"><g class="duotone-secondary" opacity=".4" fill="currentColor">
<path d="M221.636,7.84l-103.982,118.946-30.131-32.823c-7.338-7.994-18.612-8.758-26.983-2.026-6.907,5.555-9.764,18.174-2.84,25.812l45.588,50.291c7.359,8.118,20.349,9.536,28.073.775l109.569-124.279-.165,34.081c-10.092,10.053-18.996,20.932-29.174,32.302l.019,82.568c.002,11.077-7.892,18.083-18.834,18.084l-144.714.023c-11.357.002-18.927-7.887-18.923-19.127l.044-145.799c.003-8.936,7.493-17.115,16.792-17.124l127.659-.131c8.88-9.777,17.183-19.048,25.079-28.786,8.233.024,15.571,3.634,22.924,7.213Z"/>
</g><g class="duotone-primary" fill="currentColor">
<path d="M198.712.627c-7.895,9.738-16.199,19.009-25.079,28.786l-127.659.131c-9.299.01-16.789,8.188-16.792,17.124l-.044,145.799c-.003,11.24,7.566,19.129,18.923,19.127l144.714-.023c10.942-.002,18.836-7.007,18.834-18.084l-.019-82.568c10.178-11.37,19.082-22.249,29.174-32.302l-.088,117.851c-.019,25.785-21.951,44.339-46.784,44.347l-145.957.045C21.692,240.867-.015,221.441,0,194.298L.082,45.721C.097,19.339,21.255.119,46.989.192l151.722.435Z"/>
<path d="M240.93,44.535l-109.569,124.279c-7.725,8.762-20.715,7.343-28.073-.775l-45.588-50.291c-6.924-7.638-4.067-20.257,2.84-25.812,8.37-6.731,19.645-5.967,26.983,2.026l30.131,32.823L221.636,7.84c7.415-7.988,18.73-10.873,27.474-3.889,8.218,6.564,10.118,19.032,2.876,27.562l-11.055,13.022Z"/>
</g></g></svg>